<svg xmlns="http://www.w3.org/2000/svg" viewBox="0 0 402.67 247.47"><g id="Layer_2" data-name="Layer 2"><g id="Layer_1-2" data-name="Layer 1"><path d="M362.8,189.74l-71.09,14.55-.31,0a1.5,1.5,0,0,1-.29-3l78.7-16.1q3.45-2.35,6.71-4.89Q390,169.89,395.75,157.9q6.92-14.4,6.92-26.72a40.68,40.68,0,0,0-2-12.67l-2.19-6.74-12.38,2.54L377,127.84q2.41,7.14,4.95,15.55,2.31,8.18,2.31,12.55v.46l-14.86,7.26A153.6,153.6,0,0,1,337.7,175q-12.9,3.11-26.6,5.64A61.28,61.28,0,0,1,298.77,182a33.83,33.83,0,0,1-10.48-1.49q-9.09-2.65-10.59-13a14.21,14.21,0,0,1-.23-2.65,41.08,41.08,0,0,1,2.24-11.92,125.83,125.83,0,0,0,32.54-9A104.78,104.78,0,0,0,327.49,136l-37.69,7.71a1.53,1.53,0,0,1-.3,0,1.5,1.5,0,0,1-.3-3l44.7-9.14a77.87,77.87,0,0,0,15.78-15.78,131.15,131.15,0,0,0,10.95-17.74,16.62,16.62,0,0,0,2.07-7.83,15.3,15.3,0,0,0-1.82-7.1l-34,7a1.53,1.53,0,0,1-.3,0,1.5,1.5,0,0,1-.3-3l32.9-6.73c-.24-.34-.49-.68-.76-1a15.11,15.11,0,0,0-12.21-5.52,26.8,26.8,0,0,0-4.84.46q-11.06,2.19-16.58,7.25-11.3,10.71-21.94,22t-20.68,23a28.74,28.74,0,0,1-5.3.57,11.45,11.45,0,0,1-3-.34q-2.14-.44-2.69-3.8L235,130.53a1,1,0,0,1-.3,0,1.49,1.49,0,0,1-.3-3L271,120.1c0-.59,0-1.18.09-1.82v-.23c0-1.54-1.07-2.3-3.22-2.3a10.84,10.84,0,0,0-1.38.11,100.5,100.5,0,0,0-32.25,8.06q-6.22,2.77-10.2,10.08c-1.62,3-3.08,5.81-4.43,8.52l18.78-3.84a1.5,1.5,0,1,1,.6,2.93l-21,4.31-.77,1.62v.23a21.51,21.51,0,0,0-1.66,2.25,21.28,21.28,0,0,1-3.18,1.09q-17,4.48-35.3,7.48a199.84,199.84,0,0,0-34.49,8.76c-2.16,1-2.58,2-1.27,3.11q2.88,2.41,18.31,7.14t19.47,5.53q12.44,2.53,21.07.46c6-1.45,11-5.53,15-12.18L192.67,176l-.3,0a1.49,1.49,0,0,1-.3-3L217.14,168c1.44-2.75,2.94-5.42,4.52-8a33.07,33.07,0,0,1,4.94-6.22,36.22,36.22,0,0,1,10-4.61,92,92,0,0,1,16.52-3.23h.24c.76,0,1.15.27,1.15.81v.35a5.1,5.1,0,0,0-.12,1,2.47,2.47,0,0,0,.12.81,5.55,5.55,0,0,0,4.14,4.49,15.27,15.27,0,0,0,4.61.69,16.47,16.47,0,0,0,2.65-.23v-.12h1c2.08,0,4.19-.08,6.3-.22a112.49,112.49,0,0,0-8.84,21.19,51.62,51.62,0,0,0-2.42,15c0,1.18.06,2.32.15,3.44l25-5.12a1.5,1.5,0,0,1,.6,2.94l-25.27,5.17c.09.55.18,1.1.3,1.63q2.31,10.49,17.39,12.67a76.23,76.23,0,0,0,11.29.81A106.62,106.62,0,0,0,312.14,209a154.79,154.79,0,0,0,34.26-10.77A152.74,152.74,0,0,0,362.8,189.74Zm-58.5-77.45a63.31,63.31,0,0,1,14.75-10.94,12.46,12.46,0,0,1,6.22-1.61,15.67,15.67,0,0,1,4.49.69q5.87,1.72,8.06,5.53a9,9,0,0,1,1.15,3.8,2.47,2.47,0,0,1-1.49,2.42A108.82,108.82,0,0,1,315.59,120q-11.74,2.88-24.19,5.3Q297.85,118.74,304.3,112.29Z" style="fill:#9e0f11"/><polygon points="397.59 108.91 395.06 101.12 388.54 110.76 397.59 108.91" style="fill:#9e0f11"/><path d="M47.56,28.65a1.5,1.5,0,0,1,.6,2.94l-30.83,6.3-2.82,5.64q11.3-2.07,22.58-4.2t22.69-4.21L68.71,17.4l-22,4.5a1.53,1.53,0,0,1-.3,0,1.5,1.5,0,0,1-.3-3l24.3-5,3.51-7q-20.73,4-45.38,8.41L19,34.49Z" style="fill:#9e0f11"/><path d="M358.14,218.3l-.3,0a1.5,1.5,0,0,1-.3-3l19.54-4-12.77-12q-4.83,6.11-9.73,12.09T345,223.58l16.59,15.55q4.83-6,9.67-12t9.68-12.21l-1.14-1.07Z" style="fill:#9e0f11"/><path d="M161.39,136l-85,17.4a1.63,1.63,0,0,1-.31,0,1.49,1.49,0,0,1-.29-3L163,132.66l8-17.14a13.73,13.73,0,0,1-6.1,1.61,9.83,9.83,0,0,1-7.49-3.57,81.47,81.47,0,0,0-6.68-16.18,24.61,24.61,0,0,0-10.94-10.66,16.81,16.81,0,0,0-7.37-1.84,15.35,15.35,0,0,0-8.64,2.76,52.76,52.76,0,0,0-13.53,14.17c-.13.19-.24.39-.37.57l23.74-4.85a1.5,1.5,0,0,1,.6,2.93l-26.58,5.44a116.34,116.34,0,0,0-7.82,15.2q-4.38,10.32-6.56,16.53l-29.76,5.3.5-.92L60.54,92.69,46.73,95.52a1.53,1.53,0,0,1-.3,0,1.5,1.5,0,0,1-.3-3l14.21-2.9-.68-9.87q-.12-15.44-8.87-18.89a12.1,12.1,0,0,0-4.37-.8q-7.16,0-15.9,8.17-3.22,3-9.73,12.21a165.31,165.31,0,0,0-12,20A95.39,95.39,0,0,0,.81,121.39,26.1,26.1,0,0,0,0,127.5c0,.33,0,.66,0,1l22.72-4.65a1.5,1.5,0,1,1,.6,2.93L.52,131.45A10.12,10.12,0,0,0,3.23,136q7,6.67,15.08,6.68a21.62,21.62,0,0,0,6.11-.92,38.91,38.91,0,0,0,18.89-12l2.27,33.94,33.32-6.81a1.5,1.5,0,1,1,.6,2.93l-33.72,6.9.29,4.24-.58,3.37c.28,0,.53-.1.79-.15l0,.27.17-.31c.56-.1,1.14-.2,1.67-.33.85-.19,1.73-.4,2.65-.63v.12c.39-.08.77-.18,1.15-.29l1.27-.4q7.49-1.5,15.09-2.88l.12-.35Q76,168,81.55,166.89c-.23,1.22-.54,2.66-.93,4.31s-.65,2.94-.8,3.86a3.31,3.31,0,0,0-.12.81,1.33,1.33,0,0,0,1.5,1.5,3.31,3.31,0,0,0,.81-.12c2-.69,3.3-2.51,3.91-5.47A29.2,29.2,0,0,1,88,165q18.65-4.72,34.78-8.23T155.84,148ZM104.06,125.6a29.73,29.73,0,0,1,7.43-9.85,10,10,0,0,1,6.68-2.88,11.4,11.4,0,0,1,6.91,2.76q5,3.91,8.53,12.21a4.12,4.12,0,0,1,.23,1.27c0,.77-.46,1.26-1.39,1.49l-33.4,6.57C100.66,133.18,102.34,129.32,104.06,125.6ZM39.85,111.37a28.39,28.39,0,0,1-7.48,1,25.23,25.23,0,0,1-6.8-.93q-6.91-2-9.44-7a6.27,6.27,0,0,1-1-3.23,5.38,5.38,0,0,1,1.26-3.34A44.74,44.74,0,0,1,23.5,91a9.47,9.47,0,0,1,6.22-2.3,12.41,12.41,0,0,1,3.91.69q5.07,1.72,6,9.22a60.2,60.2,0,0,1,.58,7.94A31.16,31.16,0,0,1,39.85,111.37Z" style="fill:#9e0f11"/><path d="M53.47,203.32l-3.55,11.44H46l-2.33-7.71-2.3,7.71H37.46L34,203.32H37.8l2,7.89,2.44-7.89h3.25l2.32,7.89,1.93-7.89Z" style="fill:#9e0f11"/><path d="M73.91,203.32l-3.55,11.44H66.47l-2.33-7.71-2.31,7.71H57.9l-3.52-11.44h3.85l2,7.89,2.44-7.89h3.25l2.32,7.89,1.93-7.89Z" style="fill:#9e0f11"/><path d="M94.34,203.32,90.8,214.76H86.9l-2.33-7.71-2.3,7.71H78.34l-3.52-11.44h3.85l2,7.89,2.45-7.89h3.25l2.32,7.89,1.93-7.89Z" style="fill:#9e0f11"/><path d="M100.48,214.76H96.67v-4h3.81Z" style="fill:#9e0f11"/><path d="M116,208.89a6.41,6.41,0,0,1-1.49,4.4,4.74,4.74,0,0,1-3.72,1.7,6,6,0,0,1-1.67-.21,5.27,5.27,0,0,1-1.38-.59l-.15.57h-3.53V198.91h3.68v5.6a9.23,9.23,0,0,1,1.73-1.09,4.78,4.78,0,0,1,2-.41,3.92,3.92,0,0,1,3.33,1.56A7.06,7.06,0,0,1,116,208.89Zm-3.78.07a4.48,4.48,0,0,0-.51-2.35,2,2,0,0,0-1.85-.82,3.65,3.65,0,0,0-1.07.16,4.06,4.06,0,0,0-1,.45v5.74a3.93,3.93,0,0,0,.75.19,6.87,6.87,0,0,0,.86,0,2.64,2.64,0,0,0,2.16-.85A3.92,3.92,0,0,0,112.23,209Z" style="fill:#9e0f11"/><path d="M129.93,209.72h-8.39a2.62,2.62,0,0,0,1,2.06,4.59,4.59,0,0,0,2.78.71,6.23,6.23,0,0,0,2.25-.42,6.83,6.83,0,0,0,1.72-.89h.41v2.94a13,13,0,0,1-2.35.73,12.12,12.12,0,0,1-2.43.22,8,8,0,0,1-5.28-1.55,5.45,5.45,0,0,1-1.83-4.41,5.94,5.94,0,0,1,1.73-4.49,6.65,6.65,0,0,1,4.77-1.65,5.66,5.66,0,0,1,4.19,1.41,5.49,5.49,0,0,1,1.41,4.06Zm-3.65-2.15a2.56,2.56,0,0,0-.57-1.73,2.18,2.18,0,0,0-1.68-.58,2.67,2.67,0,0,0-1.74.55,2.35,2.35,0,0,0-.77,1.76Z" style="fill:#9e0f11"/><path d="M142.46,211.14a3.3,3.3,0,0,1-1.59,2.85,7.57,7.57,0,0,1-4.35,1.09,12.4,12.4,0,0,1-2.77-.29,10.45,10.45,0,0,1-2-.63v-3h.33c.18.13.4.27.64.42a6.14,6.14,0,0,0,1,.49,8.69,8.69,0,0,0,1.3.41,6.87,6.87,0,0,0,1.54.16,4,4,0,0,0,1.6-.23.76.76,0,0,0,.52-.71.67.67,0,0,0-.3-.61,4.42,4.42,0,0,0-1.16-.36c-.28-.06-.64-.13-1.11-.2a12.32,12.32,0,0,1-1.27-.26,4.42,4.42,0,0,1-2.31-1.27,3.14,3.14,0,0,1-.75-2.14,3.26,3.26,0,0,1,1.56-2.75,7.34,7.34,0,0,1,4.27-1.09,10.92,10.92,0,0,1,2.46.26,10.15,10.15,0,0,1,1.84.55v2.9h-.31a7.68,7.68,0,0,0-1.86-.92,6.73,6.73,0,0,0-2.12-.35,3.84,3.84,0,0,0-1.49.25q-.6.24-.6.69a.74.74,0,0,0,.27.62,3.67,3.67,0,0,0,1.29.43l1.21.22c.43.07.86.16,1.3.27a4.08,4.08,0,0,1,2.14,1.18A3,3,0,0,1,142.46,211.14Z" style="fill:#9e0f11"/><path d="M153.19,206.82h-.33a2.94,2.94,0,0,0-.75-.13c-.34,0-.63,0-.86,0a8,8,0,0,0-1.38.11,7.38,7.38,0,0,0-1.3.34v7.66H144.9V203.32h3.67V205a7.77,7.77,0,0,1,2.11-1.38,4.82,4.82,0,0,1,1.65-.34h.43l.43,0Z" style="fill:#9e0f11"/><path d="M162.2,213.55l-.74.54a5,5,0,0,1-.82.5,5.62,5.62,0,0,1-1.12.36,6.33,6.33,0,0,1-1.28.12,3.92,3.92,0,0,1-2.73-1,3.35,3.35,0,0,1-1.1-2.58,3.49,3.49,0,0,1,.56-2,3.89,3.89,0,0,1,1.59-1.26,9.21,9.21,0,0,1,2.53-.65c1-.13,2-.22,3.13-.28v-.07a1.33,1.33,0,0,0-.78-1.31,5.58,5.58,0,0,0-2.28-.36,6.71,6.71,0,0,0-1.94.32c-.68.22-1.17.38-1.47.5h-.34v-2.76q.59-.15,1.89-.36a16.53,16.53,0,0,1,2.62-.21,8.14,8.14,0,0,1,4.52,1,3.41,3.41,0,0,1,1.39,3v7.78H162.2Zm0-1.78V209.4c-.5,0-1,.09-1.61.16a8.21,8.21,0,0,0-1.32.25,1.92,1.92,0,0,0-.84.5,1.29,1.29,0,0,0-.29.87,2.29,2.29,0,0,0,.06.58.92.92,0,0,0,.31.43,1.67,1.67,0,0,0,.56.3,4.21,4.21,0,0,0,1,.09,3,3,0,0,0,1.11-.22A3.67,3.67,0,0,0,162.2,211.77Z" style="fill:#9e0f11"/><path d="M180.7,214.76H177v-5.67a12.75,12.75,0,0,0-.07-1.38,2.89,2.89,0,0,0-.25-1,1.21,1.21,0,0,0-.59-.55A2.91,2.91,0,0,0,175,206a3.6,3.6,0,0,0-1,.16,6.07,6.07,0,0,0-1.12.52v8.11h-3.67V198.91h3.67v5.68a10.08,10.08,0,0,1,1.88-1.18,4.83,4.83,0,0,1,2-.4,3.85,3.85,0,0,1,2.9,1.08,4.49,4.49,0,0,1,1,3.23Z" style="fill:#9e0f11"/><path d="M191,213.55l-.73.54a5.53,5.53,0,0,1-.83.5,5.42,5.42,0,0,1-1.12.36,6.3,6.3,0,0,1-1.27.12,3.93,3.93,0,0,1-2.74-1,3.35,3.35,0,0,1-1.1-2.58,3.49,3.49,0,0,1,.56-2,3.89,3.89,0,0,1,1.59-1.26,9.3,9.3,0,0,1,2.53-.65c1-.13,2.05-.22,3.13-.28v-.07a1.33,1.33,0,0,0-.78-1.31,5.58,5.58,0,0,0-2.28-.36,6.6,6.6,0,0,0-1.93.32c-.69.22-1.18.38-1.48.5h-.34v-2.76q.58-.15,1.89-.36a16.65,16.65,0,0,1,2.63-.21,8.12,8.12,0,0,1,4.51,1,3.41,3.41,0,0,1,1.4,3v7.78H191Zm0-1.78V209.4c-.5,0-1,.09-1.61.16a8.21,8.21,0,0,0-1.32.25,1.92,1.92,0,0,0-.84.5,1.29,1.29,0,0,0-.29.87,2.29,2.29,0,0,0,.06.58,1,1,0,0,0,.31.43,1.67,1.67,0,0,0,.56.3,4.21,4.21,0,0,0,1,.09,2.93,2.93,0,0,0,1.11-.22A3.67,3.67,0,0,0,191,211.77Z" style="fill:#9e0f11"/><path d="M202,214.76h-3.81v-4H202Z" style="fill:#9e0f11"/><path d="M211.51,215.07a9.82,9.82,0,0,1-2.74-.36,5.85,5.85,0,0,1-2.15-1.1,4.88,4.88,0,0,1-1.41-1.87,6.59,6.59,0,0,1-.5-2.65,6.47,6.47,0,0,1,.54-2.76,5.1,5.1,0,0,1,1.49-1.93,6.22,6.22,0,0,1,2.14-1.06,9.57,9.57,0,0,1,2.52-.33,8.65,8.65,0,0,1,2.16.25,10.53,10.53,0,0,1,1.84.66v3.13h-.52l-.51-.43a5.28,5.28,0,0,0-.74-.48,5.51,5.51,0,0,0-.92-.37,4,4,0,0,0-1.16-.14,2.8,2.8,0,0,0-2.25.93,3.76,3.76,0,0,0-.79,2.53,3.52,3.52,0,0,0,.81,2.51,3,3,0,0,0,2.3.85,4.33,4.33,0,0,0,1.24-.16,3.82,3.82,0,0,0,.92-.37,3.65,3.65,0,0,0,.61-.43l.49-.43h.52v3.12a9.52,9.52,0,0,1-1.81.65A8.43,8.43,0,0,1,211.51,215.07Z" style="fill:#9e0f11"/><path d="M229.52,209.05a6,6,0,0,1-1.65,4.45,7.4,7.4,0,0,1-9.24,0,6.86,6.86,0,0,1,0-8.91,6.32,6.32,0,0,1,4.61-1.62,6.25,6.25,0,0,1,4.63,1.63A6,6,0,0,1,229.52,209.05ZM225,211.83a3.05,3.05,0,0,0,.53-1.05,6.41,6.41,0,0,0,.18-1.71,6.72,6.72,0,0,0-.18-1.69,3.16,3.16,0,0,0-.51-1.09,1.74,1.74,0,0,0-.79-.59,2.64,2.64,0,0,0-1-.18,2.77,2.77,0,0,0-.94.15,1.84,1.84,0,0,0-.79.57,2.92,2.92,0,0,0-.53,1.09,6.12,6.12,0,0,0-.2,1.74,6.94,6.94,0,0,0,.17,1.62,3,3,0,0,0,.51,1.11,2,2,0,0,0,.78.58,3,3,0,0,0,2,0A1.94,1.94,0,0,0,225,211.83Z" style="fill:#9e0f11"/><path d="M243.32,206.65v8.11h-3.67v-5.71c0-.56,0-1,0-1.42a2.71,2.71,0,0,0-.23-1,1.13,1.13,0,0,0-.55-.53,2.67,2.67,0,0,0-1.05-.17,2.57,2.57,0,0,0-1.05.22,8.55,8.55,0,0,0-.91.46v8.11h-3.68V203.32h3.68v1.27a9.82,9.82,0,0,1,1.81-1.17,4.42,4.42,0,0,1,1.91-.41,3.82,3.82,0,0,1,2,.5,3.49,3.49,0,0,1,1.36,1.48,11.51,11.51,0,0,1,2.13-1.45,4.4,4.4,0,0,1,2-.53,3.52,3.52,0,0,1,2.81,1.11,4.74,4.74,0,0,1,1,3.2v7.44h-3.67v-5.71c0-.57,0-1,0-1.43a2.51,2.51,0,0,0-.22-1,1.09,1.09,0,0,0-.55-.53,2.69,2.69,0,0,0-1.06-.17,2.55,2.55,0,0,0-.9.16A7.2,7.2,0,0,0,243.32,206.65Z" style="fill:#9e0f11"/><path d="M221.3,0c-.17,1.75-.32,3.5-.51,5.25-.37,3.57-.76,7.15-1.15,10.72-.32,2.9-.65,5.8-1,8.7-.39,3.49-.76,7-1.15,10.55h3.15v9.24h-6.89c.53,3.11,1.05,6.13,1.56,9.15q1.17,6.95,2.33,13.9T220,81.25c.64,3.74,1.29,7.48,1.89,11.22a1.46,1.46,0,0,1-.35,1.12,74.52,74.52,0,0,0-9.59,11.31,57.29,57.29,0,0,0-7,13.45,36.93,36.93,0,0,0-2.19,10.28,3.53,3.53,0,0,0,.17,1.25,3.48,3.48,0,0,1-2.73,4.58v-31.7c0-2.82,0-5.64,0-8.46,0-.53.06-.82.67-1a3.94,3.94,0,0,0,2.65-4.58,4,4,0,0,0-4.24-3.2,4.07,4.07,0,0,0-3.76,3.85,4.13,4.13,0,0,0,2.93,4l.47.14v40.9a3.4,3.4,0,0,1-2.76-4.32,6.58,6.58,0,0,0,.15-2.75A46.52,46.52,0,0,0,190,109.42a72.42,72.42,0,0,0-11.18-14.55,11.85,11.85,0,0,0-1.15-1.09,1.39,1.39,0,0,1-.48-1.53q1.35-7.87,2.68-15.75,1.86-10.9,3.7-21.83c.57-3.37,1.13-6.73,1.71-10.19h-6.9V35.26h3.18c-.12-1.07-.23-2.09-.34-3.1-.58-5.29-1.18-10.59-1.75-15.89q-.79-7.35-1.55-14.7c-.06-.52-.1-1-.14-1.57h28.71c-.1,3.62-.21,7.24-.3,10.85-.12,5-.25,10.06-.34,15.08,0,2.18,0,4.36,0,6.57h5.47c.12-2.16.23-4.26.35-6.37q.28-4.62.56-9.26c.14-2.36.25-4.72.38-7.08L213.14,0ZM205.8,47.34q1.75,29,3.51,57.82c2.38-3,4.75-6,7.1-9a1,1,0,0,0,.17-.69c-.08-1-.2-2-.31-3-.32-3.07-.65-6.15-1-9.22q-.65-6-1.28-11.93-.5-4.65-1-9.3c-.28-2.63-.54-5.26-.82-7.88-.25-2.27-.52-4.53-.79-6.8Zm-2.26-11.69v8.27h8.2V35.65Z" style="fill:#9e0f11"/><path d="M344.35,18V65.78A30.07,30.07,0,0,1,351.84,68V18a18,18,0,0,0-18-18H234.18V7.55h99.68A10.5,10.5,0,0,1,344.35,18Z" style="fill:#9e0f11"/><path d="M84.86,125.11V18A10.49,10.49,0,0,1,95.34,7.55h73.91V.06H95.34a18,18,0,0,0-18,18v109A30.39,30.39,0,0,1,84.86,125.11Z" style="fill:#9e0f11"/><path d="M351.84,125.12a69.63,69.63,0,0,1-7.49,5.49v36.67a2.13,2.13,0,0,1,.25,0,31.81,31.81,0,0,1,7.24-2.61Z" style="fill:#9e0f11"/><path d="M343.5,233.46a10.49,10.49,0,0,1-9.64,6.43H95.34A10.5,10.5,0,0,1,84.86,229.4v-1.35c-.06,0,0,0,0,0V220.9H77.19v8.6a18,18,0,0,0,18,18h109l0-.09H333.86a18,18,0,0,0,15.35-8.67A31.24,31.24,0,0,1,343.5,233.46Z" style="fill:#9e0f11"/></g></g></svg>