<?xml version="1.0" encoding="UTF-8"?>
<svg width="60%" height="70px" viewBox="0 0 388 66" version="1.1" xmlns="http://www.w3.org/2000/svg" xmlns:xlink="http://www.w3.org/1999/xlink">
    <!-- Generator: Sketch 61.2 (89653) - https://sketch.com -->
    <title>Group 25</title>
    <desc>Created with Sketch.</desc>
    <defs>
        <radialGradient cx="22.5374664%" cy="8.10187884%" fx="22.5374664%" fy="8.10187884%" r="118.86044%" gradientTransform="translate(0.225375,0.081019),scale(0.818174,1.000000),translate(-0.225375,-0.081019)" id="radialGradient-1">
            <stop stop-color="#FFFFFF" stop-opacity="0.1" offset="0%"></stop>
            <stop stop-color="#FFFFFF" stop-opacity="0" offset="100%"></stop>
        </radialGradient>
    </defs>
    <g id="Page-1" stroke="none" stroke-width="1" fill="none" fill-rule="evenodd">
        <g id="Home" transform="translate(-170.000000, -8179.000000)" fill-rule="nonzero">
            <g id="Group-25" transform="translate(170.000000, 8179.000000)">
                <g id="Google_News_icon" transform="translate(0.000000, -0.000000)">
                    <path d="M63.3779728,44.22033 C63.3779728,45.3295784 62.4633295,46.2381403 61.3455672,46.2381403 L18.3293554,46.2381403 C17.2115931,46.2381403 16.2969498,45.3295784 16.2969498,44.22033 L16.2969498,2.01781026 C16.2969498,0.908561943 17.2115931,0 18.3293554,0 L61.3467835,0 C62.4645458,0 63.3791891,0.908561943 63.3791891,2.01781026 L63.3791891,44.22033 L63.3779728,44.22033 Z" id="Path" fill="#0C9D58"></path>
                    <polygon id="Path" fill="#004D40" opacity="0.2" points="63.3779728 10.8492269 47.2561675 8.77425148 63.3779728 13.0993469"></polygon>
                    <path d="M40.615273,2.20025242 L16.2008636,13.1017794 L43.1840586,3.28030999 L43.1840586,3.2535518 C42.709709,2.23674085 41.554242,1.76239124 40.615273,2.20025242 Z" id="Path" fill="#004D40" opacity="0.2"></path>
                    <path d="M61.3467835,0 L18.3293554,0 C17.2115931,0 16.2969498,0.908561943 16.2969498,2.01781026 L16.2969498,2.47026681 C16.2969498,1.36101849 17.2115931,0.45245655 18.3293554,0.45245655 L61.3467835,0.45245655 C62.4645458,0.45245655 63.3791891,1.36101849 63.3791891,2.47026681 L63.3791891,2.01781026 C63.3779728,0.908561943 62.4645458,0 61.3467835,0 Z" id="Path" fill="#FFFFFF" opacity="0.2"></path>
                    <path d="M26.73629,42.9237745 C26.4455988,44.0074809 27.0257649,45.1130803 28.0255479,45.3806622 L67.8684825,56.0960982 C68.8682655,56.36368 69.9239974,55.6959417 70.2134723,54.6122353 L79.5995132,19.5833411 C79.8902043,18.4996347 79.3100383,17.3940353 78.3102553,17.1264534 L38.4673207,6.4110174 C37.4675377,6.14343557 36.4118057,6.81117387 36.1223308,7.89488028 L26.73629,42.9237745 Z" id="Path" fill="#EA4335"></path>
                    <polygon id="Path" fill="#3E2723" opacity="0.2" points="70.6221427 32.0867103 72.717795 44.817524 70.6221427 52.64186"></polygon>
                    <polygon id="Path" fill="#3E2723" opacity="0.2" points="47.4446911 9.29360348 49.322629 9.79836012 50.4878263 17.6555357"></polygon>
                    <path d="M78.3114715,17.1264534 L38.468537,6.4110174 C37.468754,6.14343557 36.413022,6.81117387 36.1235471,7.89488028 L26.7375063,42.9237745 C26.7216946,42.9821559 26.7180458,43.0417537 26.7070992,43.1001352 L36.0225958,8.3363903 C36.313287,7.25268389 37.3690189,6.58494559 38.3675856,6.85252742 L78.2105202,17.5679635 C79.1555706,17.8209499 79.7162761,18.8243818 79.5301851,19.8497067 L79.6019457,19.5833411 C79.8914206,18.4996347 79.3112546,17.3940353 78.3114715,17.1264534 Z" id="Path" fill="#FFFFFF" opacity="0.2"></path>
                    <path d="M58.1151247,38.6096256 C58.4982533,39.6641412 58.016606,40.8159594 57.0447974,41.1698972 L15.0016104,56.471929 C14.0285856,56.8258668 12.9193373,56.2529985 12.5362088,55.1984828 L0.132574634,21.1207204 C-0.250553896,20.0662047 0.231093399,18.9143866 1.20290196,18.5604488 L43.2460889,3.25841693 C44.2191138,2.90447914 45.3283621,3.47734752 45.7114906,4.53186318 L58.1151247,38.6096256 Z" id="Path" fill="#FFC107"></path>
                    <path d="M0.291907451,21.5500676 C-0.0912210786,20.4955519 0.390426216,19.3437338 1.36223477,18.989796 L43.4054217,3.68654786 C44.3675001,3.33625891 45.4609367,3.89453191 45.8562281,4.92715452 L45.7114906,4.5306469 C45.3271458,3.47613123 44.2178975,2.90326286 43.2460889,3.25720065 L1.20290196,18.5604488 C0.229877118,18.9143866 -0.251770177,20.0662047 0.132574634,21.1207204 L12.5362088,55.1984828 C12.5398576,55.2094293 12.5471553,55.2191596 12.5520204,55.2313224 L0.291907451,21.5500676 Z" id="Path" fill="#FFFFFF" opacity="0.2"></path>
                    <path d="M70.6221427,63.1517446 C70.6221427,64.2719394 69.7050668,65.1890153 68.584872,65.1890153 L11.0912669,65.1890153 C9.97107203,65.1890153 9.05399612,64.2719394 9.05399612,63.1517446 L9.05399612,19.6928064 C9.05399612,18.5726116 9.97107203,17.6555357 11.0912669,17.6555357 L68.584872,17.6555357 C69.7050668,17.6555357 70.6221427,18.5726116 70.6221427,19.6928064 L70.6221427,63.1517446 Z" id="Path" fill="#4285F4"></path>
                    <path d="M59.64399,34.8586148 L42.4409109,34.8586148 L42.4409109,30.3316168 L59.64399,30.3316168 C60.1438815,30.3316168 60.5489031,30.7366384 60.5489031,31.2365299 L60.5489031,33.9524854 C60.5489031,34.452377 60.1438815,34.8586148 59.64399,34.8586148 Z" id="Path" fill="#FFFFFF"></path>
                    <path d="M59.64399,52.0604777 L42.4409109,52.0604777 L42.4409109,47.5334796 L59.64399,47.5334796 C60.1438815,47.5334796 60.5489031,47.9385012 60.5489031,48.4383927 L60.5489031,51.1543483 C60.5489031,51.6554561 60.1438815,52.0604777 59.64399,52.0604777 Z" id="Path" fill="#FFFFFF"></path>
                    <path d="M62.3599456,43.4589381 L42.4409109,43.4589381 L42.4409109,38.9319401 L62.3599456,38.9319401 C62.8598371,38.9319401 63.2648587,39.3369616 63.2648587,39.8368532 L63.2648587,42.5528087 C63.2648587,43.0539165 62.8598371,43.4589381 62.3599456,43.4589381 Z" id="Path" fill="#FFFFFF"></path>
                    <path d="M68.584872,64.7365588 L11.0912669,64.7365588 C9.97107203,64.7365588 9.05399612,63.8194828 9.05399612,62.699288 L9.05399612,63.1517446 C9.05399612,64.2719394 9.97107203,65.1890153 11.0912669,65.1890153 L68.584872,65.1890153 C69.7050668,65.1890153 70.6221427,64.2719394 70.6221427,63.1517446 L70.6221427,62.699288 C70.6221427,63.8194828 69.7050668,64.7365588 68.584872,64.7365588 Z" id="Path" fill="#1A237E" opacity="0.2"></path>
                    <path d="M11.0912669,18.1079922 L68.584872,18.1079922 C69.7050668,18.1079922 70.6221427,19.0250681 70.6221427,20.145263 L70.6221427,19.6928064 C70.6221427,18.5726116 69.7050668,17.6555357 68.584872,17.6555357 L11.0912669,17.6555357 C9.97107203,17.6555357 9.05399612,18.5726116 9.05399612,19.6928064 L9.05399612,20.145263 C9.05399612,19.0250681 9.97107203,18.1079922 11.0912669,18.1079922 Z" id="Path" fill="#FFFFFF" opacity="0.2"></path>
                    <path d="M27.0488742,39.3856129 L27.0488742,43.4686684 L32.9077,43.4686684 C32.4236202,45.9559631 30.2367468,47.7597079 27.0488742,47.7597079 C23.4924684,47.7597079 20.6086661,44.7518449 20.6086661,41.1954391 C20.6086661,37.6390333 23.4924684,34.6311703 27.0488742,34.6311703 C28.6507164,34.6311703 30.0847117,35.1821456 31.2170694,36.2609869 L31.2170694,36.2634194 L34.3173698,33.163119 C32.4345667,31.4080255 29.9788953,30.3316168 27.0476579,30.3316168 C21.0477435,30.3316168 16.1826193,35.1955247 16.1826193,41.1966554 C16.1826193,47.1977861 21.0465272,52.061694 27.0476579,52.061694 C33.3224519,52.061694 37.4505097,47.6502426 37.4505097,41.4435604 C37.4505097,40.732036 37.3848306,40.0460535 37.2790141,39.3856129 L27.0488742,39.3856129 Z" id="Path" fill="#FFFFFF"></path>
                    <g id="Group" opacity="0.2" transform="translate(16.286003, 33.180147)" fill="#1A237E">
                        <path d="M10.8759851,10.2885214 L10.8759851,10.7409779 L16.6253456,10.7409779 C16.6679155,10.5925916 16.7044039,10.4417728 16.7348109,10.2885214 L10.8759851,10.2885214 Z" id="Path"></path>
                        <path d="M10.8759851,18.8803307 C4.95148014,18.8803307 0.137439758,14.1380509 0.0170279347,8.24152038 C0.0158116536,8.3169298 0.0109465294,8.39233923 0.0109465294,8.46774865 C0.0109465294,14.4688793 4.87485444,19.3327873 10.8759851,19.3327873 C17.1507791,19.3327873 21.2788369,14.9213359 21.2788369,8.71465371 C21.2788369,8.66478618 21.2727555,8.6185675 21.2727555,8.56869998 C21.1377483,14.6136168 17.0473952,18.8803307 10.8759851,18.8803307 Z" id="Path"></path>
                        <path d="M15.0441803,3.08083989 C13.9118226,2.00321489 12.476611,1.45102329 10.8759851,1.45102329 C7.31957934,1.45102329 4.43577698,4.45888632 4.43577698,8.0152921 C4.43577698,8.09191781 4.44429095,8.16611095 4.44672351,8.24152038 C4.56713533,4.78484964 7.39498877,1.90347984 10.8759851,1.90347984 C12.4778273,1.90347984 13.9118226,2.45445515 15.0441803,3.53329644 L15.0441803,3.53572901 L18.3707089,0.20920034 C18.292867,0.136223477 18.206511,0.0717605818 18.1262365,0.00121628105 L15.0453966,3.08327246 L15.0441803,3.08083989 Z" id="Path"></path>
                    </g>
                    <path d="M60.5489031,34.404942 L60.5489031,33.9524854 C60.5489031,34.452377 60.1438815,34.8573985 59.64399,34.8573985 L42.4409109,34.8573985 L42.4409109,35.3098578 L59.64399,35.3098578 C60.1438815,35.3110714 60.5489031,34.9060498 60.5489031,34.404942 Z" id="Path" fill="#1A237E" opacity="0.2"></path>
                    <path d="M59.64399,52.0604777 L42.4409109,52.0604777 L42.4409109,52.5129342 L59.64399,52.5129342 C60.1438815,52.5129342 60.5489031,52.1079126 60.5489031,51.6080211 L60.5489031,51.1555646 C60.5489031,51.6554561 60.1438815,52.0604777 59.64399,52.0604777 Z" id="Path" fill="#1A237E" opacity="0.2"></path>
                    <path d="M62.3599456,43.4589381 L42.4409109,43.4589381 L42.4409109,43.9113947 L62.3599456,43.9113947 C62.8598371,43.9113947 63.2648587,43.5063731 63.2648587,43.0064816 L63.2648587,42.554025 C63.2648587,43.0539165 62.8598371,43.4589381 62.3599456,43.4589381 Z" id="Path" fill="#1A237E" opacity="0.2"></path>
                    <path d="M78.3114715,17.1264534 L63.3791891,13.1102934 L63.3791891,2.01781026 C63.3791891,0.908561943 62.4645458,0 61.3467835,0 L18.3293554,0 C17.2115931,0 16.2969498,0.908561943 16.2969498,2.01781026 L16.2969498,13.0665073 L1.20290196,18.5604488 C0.229877118,18.9143866 -0.251770177,20.0662047 0.132574634,21.1207204 L9.05399612,45.6336486 L9.05399612,63.1517446 C9.05399612,64.2719394 9.97107203,65.1890153 11.0912669,65.1890153 L68.584872,65.1890153 C69.7050668,65.1890153 70.6221427,64.2719394 70.6221427,63.1517446 L70.6221427,53.0943166 L79.6019457,19.5833411 C79.8914206,18.4996347 79.3112546,17.3940353 78.3114715,17.1264534 Z" id="Path" fill="url(#radialGradient-1)"></path>
                </g>
                <g id="gni-logo" transform="translate(116.053571, 17.321429)">
                    <polygon id="Path" fill="#5F6368" points="164.127915 36.6732703 164.127915 3.60720692 169.338325 3.60720692 185.370356 29.2584561 185.570756 29.2584561 185.370356 22.8456438 185.370356 3.60720692 189.578764 3.60720692 189.578764 36.6732703 185.169955 36.6732703 168.336323 9.61921845 168.135922 9.61921845 168.336323 16.0320307 168.336323 36.47287 164.127915 36.47287"></polygon>
                    <path d="M205.610794,37.2744715 C202.404388,37.4748719 199.398382,36.0720692 197.193978,33.867665 C194.989574,31.4628603 193.787172,28.4568546 193.987572,25.2504484 C193.987572,22.0440423 194.989574,19.0380365 196.993578,16.6332319 C198.997582,14.2284273 202.003587,13.026025 205.009593,13.026025 C208.015599,12.8256246 211.021605,14.0280269 213.025609,16.2324311 C215.230013,18.6372357 216.232015,21.8436419 216.031614,25.050048 L216.031614,26.05205 L198.396381,26.05205 C198.396381,28.0560538 199.197982,30.0600577 200.600785,31.4628603 C202.003587,32.6652627 203.606791,33.4668642 205.410394,33.4668642 C208.015599,33.6672646 210.620804,32.0640615 211.622806,29.6592569 L215.430413,31.26246 C214.628812,33.0660634 213.426409,34.6692665 211.823206,35.6712684 C210.019603,36.8736707 207.815199,37.4748719 205.610794,37.2744715 Z M211.622806,22.6452434 C211.422406,21.2424407 210.821204,20.0400384 209.819202,19.0380365 C208.4164,17.8356342 206.813197,17.2344331 205.009593,17.2344331 C203.606791,17.2344331 202.203988,17.8356342 201.001586,18.6372357 C199.799183,19.6392377 198.997582,21.0420404 198.596781,22.6452434 L211.622806,22.6452434 Z" id="Shape" fill="#5F6368"></path>
                    <polygon id="Path" fill="#5F6368" points="243.887268 36.6732703 239.478459 36.6732703 233.867249 19.4388373 228.256038 36.6732703 224.04763 36.6732703 216.833216 14.0280269 221.242024 14.0280269 226.252034 31.0620596 226.252034 31.0620596 231.863245 14.0280269 236.272053 14.0280269 241.883264 31.0620596 241.883264 31.0620596 246.893274 14.0280269 251.302082 14.0280269"></polygon>
                    <path d="M261.923302,37.2744715 C259.718898,37.2744715 257.514494,36.6732703 255.71089,35.470868 C254.107687,34.2684657 252.905285,32.6652627 252.103684,30.8616592 L255.911291,29.2584561 C256.712892,31.8636611 259.318097,33.6672646 262.123703,33.4668642 C263.326105,33.4668642 264.328107,33.2664638 265.330109,32.6652627 C266.13171,32.2644619 266.532511,31.26246 266.532511,30.260458 C266.532511,28.8576553 265.530509,27.8556534 263.526505,27.2544523 L258.917297,26.05205 C257.514494,25.6512492 256.111691,25.050048 254.909289,24.0480461 C253.506486,23.0460442 252.905285,21.4428411 252.905285,19.8396381 C252.905285,17.8356342 253.907287,16.0320307 255.51049,15.0300288 C258.917297,12.8256246 263.526505,12.6252242 267.133712,14.4288277 C268.736915,15.2304292 269.939318,16.6332319 270.540519,18.4368354 L266.933312,20.0400384 C266.13171,18.0360346 263.927306,16.8336323 261.722902,17.0340327 C260.5205,17.0340327 259.518498,17.2344331 258.516496,17.8356342 C257.714894,18.236435 257.314094,19.0380365 257.314094,20.0400384 C257.314094,21.2424407 258.316095,22.2444427 260.320099,22.6452434 L264.728908,23.6472454 C266.532511,24.0480461 268.135714,24.8496477 269.538517,26.2524504 C270.540519,27.4548527 271.14172,28.8576553 271.14172,30.260458 C271.14172,32.2644619 270.139718,34.0680653 268.736915,35.2704676 C266.532511,36.6732703 264.127707,37.4748719 261.923302,37.2744715 Z" id="Path" fill="#5F6368"></path>
                    <path d="M18.6372357,37.2744715 C8.41681614,37.2744715 0,29.0580557 0,18.6372357 C0,8.21641576 8.41681614,0 18.6372357,0 C18.6372357,0 18.6372357,0 18.6372357,0 C23.446845,0 28.0560538,1.80360346 31.4628603,5.21040999 L27.8556534,8.81761691 C25.4508488,6.4128123 22.0440423,5.01000961 18.6372357,5.21040999 C11.2224215,5.41081038 5.21040999,11.8236227 5.61121076,19.2384369 C5.81161115,26.2524504 11.6232223,32.0640615 18.6372357,32.2644619 C22.2444427,32.4648623 25.6512492,31.0620596 28.0560538,28.4568546 C29.6592569,26.6532511 30.6612588,24.4488469 30.8616592,22.0440423 L18.6372357,22.0440423 L18.6372357,17.0340327 L35.8716688,17.0340327 C36.0720692,18.0360346 36.0720692,19.0380365 36.0720692,20.2404388 C36.2724696,24.6492473 34.6692665,29.0580557 31.6632607,32.2644619 C28.2564542,35.6712684 23.6472454,37.6752723 18.6372357,37.2744715 Z" id="Path" fill="#4285F4"></path>
                    <path d="M62.7253203,25.2504484 C62.7253203,31.8636611 57.3145099,37.0740711 50.7012972,36.8736707 C44.0880846,36.8736707 38.8776746,31.4628603 39.078075,24.8496477 C39.078075,18.4368354 44.4888853,13.2264254 50.9016976,13.2264254 C57.3145099,13.2264254 62.7253203,18.4368354 62.7253203,24.8496477 C62.7253203,25.050048 62.7253203,25.2504484 62.7253203,25.2504484 Z M57.5149103,25.2504484 C57.9157111,21.6432415 55.1101057,18.236435 51.5028988,18.0360346 C47.8956919,17.6352338 44.4888853,20.4408392 44.2884849,24.0480461 C44.2884849,24.4488469 44.2884849,24.8496477 44.2884849,25.2504484 C43.8876842,28.8576553 46.6932896,32.2644619 50.3004965,32.4648623 C53.9077034,32.865663 57.3145099,30.0600577 57.5149103,26.4528507 C57.5149103,26.2524504 57.5149103,25.8516496 57.5149103,25.2504484 Z" id="Shape" fill="#EA4335"></path>
                    <path d="M89.178171,25.2504484 C89.178171,31.8636611 83.7673607,37.0740711 77.154148,36.8736707 C70.5409353,36.8736707 65.3305253,31.4628603 65.5309257,24.8496477 C65.5309257,18.4368354 70.9417361,13.2264254 77.3545484,13.2264254 C83.7673607,13.2264254 89.178171,18.4368354 89.178171,24.8496477 C89.178171,25.050048 89.178171,25.2504484 89.178171,25.2504484 Z M83.9677611,25.2504484 C84.3685618,21.6432415 81.5629564,18.236435 77.9557495,18.0360346 C74.3485426,17.6352338 70.9417361,20.4408392 70.7413357,24.0480461 C70.7413357,24.4488469 70.7413357,24.8496477 70.7413357,25.2504484 C70.3405349,28.8576553 73.1461403,32.2644619 76.7533472,32.4648623 C80.3605541,32.865663 83.7673607,30.0600577 83.9677611,26.4528507 C84.1681614,26.2524504 84.1681614,25.8516496 83.9677611,25.2504484 Z" id="Shape" fill="#FBBC04"></path>
                    <path d="M115.230221,14.0280269 L115.230221,35.6712684 C115.230221,44.4888853 110.019811,48.0960922 103.807399,48.0960922 C99.1981903,48.0960922 94.9897822,45.2904869 93.1861787,41.0820788 L97.7953876,39.078075 C98.7973895,41.4828796 101.202194,43.286483 103.807399,43.286483 C107.815407,43.286483 110.220211,40.8816784 110.220211,36.2724696 L110.220211,34.4688661 L110.019811,34.4688661 C108.416608,36.2724696 106.011803,37.2744715 103.606999,37.2744715 C96.993786,37.2744715 91.5829757,31.8636611 91.5829757,25.2504484 C91.5829757,18.6372357 96.993786,13.2264254 103.606999,13.2264254 C106.011803,13.2264254 108.216208,14.2284273 110.019811,15.8316304 L110.220211,15.8316304 L110.220211,13.8276265 L115.230221,14.0280269 Z M110.420612,25.4508488 C110.821413,21.6432415 108.015807,18.4368354 104.2082,18.0360346 C104.2082,18.0360346 104.007799,18.0360346 104.007799,18.0360346 C100.200192,18.236435 97.1941864,21.4428411 97.3945868,25.2504484 C97.3945868,25.2504484 97.3945868,25.2504484 97.3945868,25.2504484 C97.1941864,29.0580557 100.200192,32.2644619 104.007799,32.4648623 C104.007799,32.4648623 104.007799,32.4648623 104.2082,32.4648623 C108.015807,32.2644619 110.821413,29.2584561 110.621012,25.4508488 C110.420612,25.4508488 110.420612,25.4508488 110.420612,25.4508488 Z" id="Shape" fill="#4285F4"></path>
                    <polygon id="Path" fill="#34A853" points="124.448639 1.20240231 124.448639 36.47287 119.238229 36.47287 119.238229 1.20240231"></polygon>
                    <path d="M145.089878,29.2584561 L149.097886,32.0640615 C146.893482,35.470868 143.085874,37.4748719 139.077867,37.4748719 C132.665054,37.4748719 127.454644,32.4648623 127.254244,26.05205 C127.254244,25.8516496 127.254244,25.6512492 127.254244,25.4508488 C127.254244,18.236435 132.264254,13.4268258 138.476666,13.4268258 C143.085874,13.6272261 147.294283,16.6332319 148.697085,21.0420404 L149.298286,22.444843 L133.266256,29.0580557 C134.268258,31.26246 136.673062,32.865663 139.077867,32.6652627 C141.683072,32.6652627 143.887476,31.4628603 145.089878,29.2584561 Z M132.665054,25.050048 L143.486675,20.6412396 C142.685074,19.0380365 140.88147,18.0360346 139.077867,18.0360346 C135.270259,18.0360346 132.464654,21.2424407 132.665054,25.050048 C132.464654,24.8496477 132.464654,24.8496477 132.665054,25.050048 Z" id="Shape" fill="#EA4335"></path>
                </g>
            </g>
        </g>
    </g>
</svg>