<svg xmlns="http://www.w3.org/2000/svg" style="display: none;"><symbol id="google" viewBox="0 0 512 512"><title>google</title><path d="m444.5 15.519h-188.5l-188.5 150.889h377z" fill="#0f9d58"/><path d="m67.5 15.519h188.5v150.89h-188.5z" fill="#31aa52"/><path d="m270.015 206.578h286.322v144.567h-286.322z" fill="#eb4132" transform="matrix(.195 -.981 .981 .195 59.066 629.696)"/><path d="m384.468 76.078-128.468 25.554-200.142 331.742 384.469-76.475z" fill="#f8a808"/><path d="m0 152.553 55.858 280.821 200.142-39.81v-291.932z" fill="#fbbd00"/><path d="m459.5 201.481h-203.5l-60 147.5 60 147.5h203.5z" fill="#4175df"/><path d="m52.5 201.481h203.5v295h-203.5z" fill="#4086f4"/><g fill="#e3e7ea"><path d="m317.5 273.981h82v30h-82z"/><path d="m317.5 333.981h82v30h-82z"/><path d="m317.5 393.981h82v30h-82z"/></g><path d="m256 333.981h-56v30h55.503c-6.616 24.453-28.986 42.5-55.503 42.5-31.706 0-57.5-25.794-57.5-57.5s25.794-57.5 57.5-57.5c13.558 0 26.479 4.718 36.8 13.335l19.2-23.042c-15.707-13.114-35.37-20.293-56-20.293-48.248 0-87.5 39.252-87.5 87.5s39.252 87.5 87.5 87.5c21.284 0 40.815-7.642 56-20.322l11.5-52.178z" fill="#fff"/><path d="m256 333.981v82.178c19.238-16.064 31.5-40.214 31.5-67.178v-15z" fill="#e3e7ea"/></symbol><symbol id="menu" viewBox="0 0 512 512"><title>menu</title><g transform="translate(1 1)"> <g> <g> <path d="M255-1C113.618-1-1,113.618-1,255s114.618,256,256,256s256-114.618,256-256S396.382-1,255-1z M255,468.333 c-117.818,0-213.333-95.515-213.333-213.333S137.182,41.667,255,41.667S468.333,137.182,468.333,255S372.818,468.333,255,468.333 z"/> <path d="M361.667,148.333H148.333c-11.782,0-21.333,9.551-21.333,21.333c0,11.782,9.551,21.333,21.333,21.333h213.333 c11.782,0,21.333-9.551,21.333-21.333C383,157.885,373.449,148.333,361.667,148.333z"/> <path d="M361.667,233.667H148.333C136.551,233.667,127,243.218,127,255s9.551,21.333,21.333,21.333h213.333 c11.782,0,21.333-9.551,21.333-21.333S373.449,233.667,361.667,233.667z"/> <path d="M361.667,319H148.333C136.551,319,127,328.551,127,340.333c0,11.782,9.551,21.333,21.333,21.333h213.333 c11.782,0,21.333-9.551,21.333-21.333C383,328.551,373.449,319,361.667,319z"/> </g> </g> </g></symbol><symbol id="cancel" viewBox="0 0 512.001 512.001"><title>cancel</title><path d="M284.286,256.002L506.143,34.144c7.811-7.811,7.811-20.475,0-28.285c-7.811-7.81-20.475-7.811-28.285,0L256,227.717 L34.143,5.859c-7.811-7.811-20.475-7.811-28.285,0c-7.81,7.811-7.811,20.475,0,28.285l221.857,221.857L5.858,477.859 c-7.811,7.811-7.811,20.475,0,28.285c3.905,3.905,9.024,5.857,14.143,5.857c5.119,0,10.237-1.952,14.143-5.857L256,284.287 l221.857,221.857c3.905,3.905,9.024,5.857,14.143,5.857s10.237-1.952,14.143-5.857c7.811-7.811,7.811-20.475,0-28.285 L284.286,256.002z"/></symbol><symbol id="edit" viewBox="0 0 386.615 386.615"><title>edit</title><path d="M36.573,309.292h2.09l100.833-21.943c1.964-0.327,3.784-1.237,5.224-2.612L315.56,113.896 c12.48-12.453,19.443-29.391,19.331-47.02c0.023-17.766-6.917-34.833-19.331-47.543C303.108,6.853,286.17-0.11,268.54,0.003 c-17.742-0.157-34.76,7.028-47.02,19.853L51.201,190.696c-1.502,1.209-2.597,2.85-3.135,4.702L26.124,296.231 c-0.599,3.62,0.565,7.308,3.135,9.927C31.188,308.126,33.817,309.253,36.573,309.292z M268.54,20.901 c25.103-0.002,45.454,20.347,45.456,45.45c0,0.175-0.001,0.35-0.003,0.525c0.171,11.959-4.547,23.47-13.061,31.869 l-64.261-64.784C245.137,25.548,256.604,20.848,268.54,20.901z M222.042,49.113l64.261,64.261L137.405,261.749l-64.261-63.739 L222.042,49.113z M64.785,218.909l51.722,51.722L50.156,285.26L64.785,218.909z"/><path d="M368.328,365.717H18.287c-5.771,0-10.449,4.678-10.449,10.449s4.678,10.449,10.449,10.449h350.041 c5.771,0,10.449-4.678,10.449-10.449S374.099,365.717,368.328,365.717z"/></symbol><symbol id="wall-clock" viewBox="0 0 512 512"><title>wall-clock</title><g> <g> <path d="M256,0C114.845,0,0,114.839,0,256s114.845,256,256,256c141.161,0,256-114.839,256-256S397.155,0,256,0z M256,474.628 C135.45,474.628,37.372,376.55,37.372,256S135.45,37.372,256,37.372s218.628,98.077,218.628,218.622 C474.628,376.55,376.55,474.628,256,474.628z"/> </g> </g><g> <g> <path d="M343.202,256h-80.973V143.883c0-10.321-8.365-18.686-18.686-18.686s-18.686,8.365-18.686,18.686v130.803 c0,10.321,8.365,18.686,18.686,18.686h99.659c10.321,0,18.686-8.365,18.686-18.686S353.523,256,343.202,256z"/> </g> </g></symbol><symbol id="operating-table" viewBox="0 0 512 512"><title>operating-table</title><path id="XMLID_240_" d="m470.789 252h-349.327l-58.613-44.124c-15.859-11.938-38.475-8.75-50.413 7.11-11.938 15.859-8.749 38.474 7.11 50.413l75.173 56.591c1.733 1.305 3.844 2.011 6.014 2.011h24.055v38c0 5.523 4.477 10 10 10h112v52h-16c-17.068 0-33.065 7.459-44.022 20.24-1.306-.153-2.631-.24-3.977-.24-18.748 0-34 15.252-34 34s15.252 34 34 34c13.758 0 25.625-8.219 30.971-20h154.057c5.347 11.781 17.214 20 30.971 20 18.748 0 34-15.252 34-34s-15.252-34-34-34c-1.353 0-2.686.089-3.998.243-10.961-12.766-26.989-20.244-44.001-20.244h-16v-52h112c5.523 0 10-4.477 10-10v-38h14c19.851 0 36-16.149 36-36s-16.15-36-36-36zm-288 240c-7.72 0-14-6.28-14-14s6.28-14 14-14 14 6.28 14 14-6.281 14-14 14zm230-14c0 7.72-6.28 14-14 14s-14-6.28-14-14 6.28-14 14-14 14 6.28 14 14zm-37.227-24.796c-5.235 4.907-8.917 11.445-10.232 18.796h-149.082c-1.315-7.352-4.997-13.89-10.233-18.797 6.813-5.865 15.551-9.203 24.774-9.203h120c9.195 0 17.952 3.34 24.773 9.204zm-60.773-29.204h-48v-52h48zm156-120h-135c-5.523 0-10 4.477-10 10s4.477 10 10 10h101v28h-292v-28h101c5.523 0 10-4.477 10-10s-4.477-10-10-10h-141.712l-72.502-54.58c-7.048-5.306-8.466-15.357-3.16-22.406 2.57-3.414 6.316-5.624 10.548-6.22 4.233-.598 8.443.49 11.858 3.061l61.284 46.135c1.733 1.305 3.844 2.011 6.014 2.011h352.67c8.822 0 16 7.178 16 16s-7.178 15.999-16 15.999z"/><path id="XMLID_1268_" d="m174.956 130h216c5.523 0 10-4.477 10-10 0-31.981-26.019-58-58-58h-50v-52c0-5.523-4.477-10-10-10s-10 4.477-10 10v52h-50c-31.981 0-58 26.019-58 58 0 5.523 4.477 10 10 10zm48-48h120c17.494 0 32.265 11.882 36.665 28h-193.33c4.4-16.118 19.171-28 36.665-28z"/><path id="XMLID_1286_" d="m374.95 215.852c1.852 3.208 5.213 5.001 8.669 5.001 1.696 0 3.416-.432 4.991-1.341 4.783-2.761 6.422-8.877 3.66-13.66l-7.912-13.704c-2.761-4.783-8.878-6.422-13.66-3.66-4.783 2.761-6.422 8.877-3.66 13.66z"/><path id="XMLID_1315_" d="m360.18 150.269c-2.762-4.784-8.878-6.422-13.66-3.66-4.783 2.761-6.422 8.877-3.66 13.66l6.248 10.821c1.852 3.208 5.213 5.001 8.669 5.001 1.696 0 3.416-.432 4.991-1.341 4.783-2.761 6.422-8.877 3.66-13.66z"/><path id="XMLID_1316_" d="m195.213 188.488c-4.783-2.76-10.898-1.123-13.66 3.66l-7.912 13.704c-2.762 4.783-1.123 10.899 3.66 13.66 1.575.91 3.294 1.341 4.991 1.341 3.456 0 6.817-1.793 8.669-5.001l7.912-13.704c2.762-4.783 1.123-10.899-3.66-13.66z"/><path id="XMLID_1317_" d="m203.145 174.75c1.575.909 3.294 1.341 4.991 1.341 3.456 0 6.817-1.793 8.669-5.001l6.248-10.821c2.762-4.783 1.123-10.899-3.66-13.66-4.782-2.761-10.899-1.124-13.66 3.66l-6.248 10.821c-2.762 4.783-1.123 10.899 3.66 13.66z"/><path id="XMLID_1318_" d="m272.956 155.269v55.583c0 5.523 4.477 10 10 10s10-4.477 10-10v-55.583c0-5.523-4.477-10-10-10s-10 4.477-10 10z"/><path id="XMLID_1324_" d="m290.792 304c-2.64 0-5.21 1.07-7.08 2.93-1.86 1.86-2.92 4.44-2.92 7.07s1.06 5.21 2.92 7.07c1.87 1.86 4.44 2.93 7.08 2.93 2.63 0 5.21-1.07 7.07-2.93s2.93-4.44 2.93-7.07-1.07-5.21-2.93-7.07-4.44-2.93-7.07-2.93z"/></symbol><symbol id="doctor" viewBox="0 0 64 64"><title>doctor</title><path d="m41.12 35.81-.95-.29.73-2.39a2.5 2.5 0 1 0 -4.79-1.46l-2.59 8.45-.2-.07a1 1 0 0 0 -1.29.72l-1.49 6.44a7.03 7.03 0 0 0 -3.53-2.45l-.15-.04a6.013 6.013 0 0 0 -4.86-4.63v-.61a8.995 8.995 0 0 0 3.94-6.48h1.06a3.009 3.009 0 0 0 3-3v-1a3.009 3.009 0 0 0 -3-3h-1v-4a7.008 7.008 0 0 0 -7-7h-14a1 1 0 0 0 -1 1v1.31a8.689 8.689 0 0 0 4 7.3v1.39h-1a3.009 3.009 0 0 0 -3 3v1a3.009 3.009 0 0 0 3 3h1.06a8.924 8.924 0 0 0 2.58 5.37 9.634 9.634 0 0 0 1.36 1.12v.6a6.013 6.013 0 0 0 -4.86 4.63l-.15.04a6.966 6.966 0 0 0 -4.99 6.7v9.54a1 1 0 0 0 1 1h33a1 1 0 0 0 .94-.67l6-17a.982.982 0 0 0 -.04-.77 1.039 1.039 0 0 0 -.58-.51l-.25-.08 1.05-3.41a3.012 3.012 0 0 0 -2-3.75zm-15.12-7.81h1a1 1 0 0 1 1 1v1a1 1 0 0 1 -1 1h-1zm-18 3h-1a1 1 0 0 1 -1-1v-1a1 1 0 0 1 1-1h1zm18 19a1 1 0 1 1 -1 1 1 1 0 0 1 1-1zm-1.59-6.06a3.934 3.934 0 0 1 -1.84-1.62 4.025 4.025 0 0 1 1.84 1.62zm-2.04 1.11c.11.08.23.16.34.24l-1.88 2.33-1.77-1.33zm-5.37-.12-3.93-1.47a5.933 5.933 0 0 0 .91-2.99 9.052 9.052 0 0 0 3.02.53 8.92 8.92 0 0 0 3.02-.53 5.933 5.933 0 0 0 .91 2.99zm1.16 3.19-.66.88h-1l-.66-.88 1.16-.87zm-12.16-30.81v-.31h13a5 5 0 0 1 5 5v2h-11.31a6.7 6.7 0 0 1 -6.69-6.69zm4 14.69v-6.43a8.563 8.563 0 0 0 2.69.43h11.31v6a7 7 0 1 1 -14 0zm1.43 10.33a3.968 3.968 0 0 1 -1.84 1.61 4 4 0 0 1 1.84-1.61zm1.74 17.67h-9.17v-8.54a4.941 4.941 0 0 1 3.18-4.63l.59 2.38a4 4 0 0 0 -2.77 3.79v2a1 1 0 0 0 1 1h2v-2h-1v-1a2 2 0 0 1 4 0v1h-1v2h2a1 1 0 0 0 1-1v-2a4.011 4.011 0 0 0 -3.2-3.92l-.71-2.86.31-.09 2.82 3.5a1 1 0 0 0 1.38.17l.64-.48.7.93zm0-12.38-1.88-2.33c.11-.08.23-.16.34-.24l3.31 1.24zm2.03 12.38 1.63-9h.34l1.63 9zm20.09 0h-14.46l-1.77-9.75.7-.93.64.48a1 1 0 0 0 1.38-.17l2.82-3.5.4.12v1.93a3 3 0 1 0 2 0v-1.29a4.97 4.97 0 0 1 2.84 3.36l-.81 3.52 1.94.46 2.76-11.93 6.99 2.33zm5.91-21.02-1.03 3.36-4.75-1.59 2.61-8.5a.5.5 0 1 1 .95.3l-1.02 3.34a1.01 1.01 0 0 0 .66 1.25l1.92.59a1.006 1.006 0 0 1 .66 1.25z"/><path d="m61 2h-26a1 1 0 0 0 -1 1v17.723l-2.857 4.762a1 1 0 0 0 .857 1.515h29a1 1 0 0 0 1-1v-23a1 1 0 0 0 -1-1zm-1 23h-26.234l2.091-3.485a1 1 0 0 0 .143-.515v-17h24z"/><path d="m38 6h4v2h-4z"/><path d="m44 6h14v2h-14z"/><path d="m38 11h6v2h-6z"/><path d="m46 11h12v2h-12z"/><path d="m38 16h20v2h-20z"/><path d="m38 21h13v2h-13z"/><path d="m14 31a1 1 0 0 0 1-1v-1a1 1 0 0 0 -2 0v1a1 1 0 0 0 1 1z"/><path d="m20 31a1 1 0 0 0 1-1v-1a1 1 0 0 0 -2 0v1a1 1 0 0 0 1 1z"/></symbol><symbol id="call" viewBox="0 0 384 384"><title>call</title><path d="M353.188,252.052c-23.51,0-46.594-3.677-68.469-10.906c-10.719-3.656-23.896-0.302-30.438,6.417l-43.177,32.594 c-50.073-26.729-80.917-57.563-107.281-107.26l31.635-42.052c8.219-8.208,11.167-20.198,7.635-31.448 c-7.26-21.99-10.948-45.063-10.948-68.583C132.146,13.823,118.323,0,101.333,0H30.813C13.823,0,0,13.823,0,30.813 C0,225.563,158.438,384,353.188,384c16.99,0,30.813-13.823,30.813-30.813v-70.323C384,265.875,370.177,252.052,353.188,252.052z"/></symbol><symbol id="pin" viewBox="0 0 512 512"><title>pin</title><path d="m407.579 87.677c-31.073-53.624-86.265-86.385-147.64-87.637-2.62-.054-5.257-.054-7.878 0-61.374 1.252-116.566 34.013-147.64 87.637-31.762 54.812-32.631 120.652-2.325 176.123l126.963 232.387c.057.103.114.206.173.308 5.586 9.709 15.593 15.505 26.77 15.505 11.176 0 21.183-5.797 26.768-15.505.059-.102.116-.205.173-.308l126.963-232.387c30.304-55.471 29.435-121.311-2.327-176.123zm-151.579 144.323c-39.701 0-72-32.299-72-72s32.299-72 72-72 72 32.299 72 72-32.298 72-72 72z"/></symbol></svg>