<svg xmlns="http://www.w3.org/2000/svg" width="218.593" height="126.002" viewBox="0 0 218.593 126.002">
  <g id="Group_96" data-name="Group 96" transform="translate(-287.025 -496.307)">
    <path id="Path_98" data-name="Path 98" d="M326.588,511.564l7.691-15.257q-11.255,2.189-24.635,4.565l-7.629,15.256q6.13-1.126,12.256-2.282t12.317-2.282" transform="translate(-7.112)" fill="#fff"/>
    <path id="Path_99" data-name="Path 99" d="M377.736,560.768a44.6,44.6,0,0,0-3.627-8.785,13.368,13.368,0,0,0-5.939-5.784,9.168,9.168,0,0,0-4-1,8.335,8.335,0,0,0-4.689,1.5,28.6,28.6,0,0,0-7.347,7.691,62.331,62.331,0,0,0-5.659,10.473q-2.377,5.6-3.564,8.972l-16.153,2.878.272-.5-2.314-33.763q-.062-8.378-4.815-10.254a6.506,6.506,0,0,0-2.375-.438q-3.879,0-8.629,4.44a48.134,48.134,0,0,0-5.284,6.628,88.947,88.947,0,0,0-6.533,10.88,51.732,51.732,0,0,0-4.314,11.317,14.229,14.229,0,0,0-.438,3.314,6.122,6.122,0,0,0,1.751,4.626,11.73,11.73,0,0,0,8.191,3.627,11.606,11.606,0,0,0,3.314-.5,21.11,21.11,0,0,0,10.254-6.5l1.5,22.367-.311,1.83c.149-.025.283-.058.428-.084l.009.146.09-.166c.307-.058.62-.112.91-.178.458-.1.938-.22,1.438-.344v.063c.208-.041.416-.094.625-.156s.438-.135.689-.219q4.063-.812,8.19-1.563l.063-.189q4.126-.75,7.127-1.375-.188,1-.5,2.344t-.437,2.095a1.858,1.858,0,0,0-.063.438.719.719,0,0,0,.813.812,1.877,1.877,0,0,0,.437-.062q1.626-.564,2.127-2.971a15.761,15.761,0,0,1,1.125-3.657q10.129-2.563,18.883-4.471t17.945-4.784l8.191-17.631a7.437,7.437,0,0,1-3.315.875,5.331,5.331,0,0,1-4.064-1.938m-63.775-1.188a15.419,15.419,0,0,1-4.064.563,13.781,13.781,0,0,1-3.689-.5,7.671,7.671,0,0,1-5.128-3.814,3.44,3.44,0,0,1-.562-1.75,2.9,2.9,0,0,1,.686-1.814,23.93,23.93,0,0,1,3.878-3.752,5.136,5.136,0,0,1,3.376-1.25,6.711,6.711,0,0,1,2.125.375q2.753.937,3.253,5a33.39,33.39,0,0,1,.312,4.314,16.877,16.877,0,0,1-.187,2.626m50.27,10.441L346.1,573.586q1.312-3.25,2.719-6.284a16.138,16.138,0,0,1,4.033-5.346,5.419,5.419,0,0,1,3.627-1.564,6.186,6.186,0,0,1,3.751,1.5,16.655,16.655,0,0,1,4.628,6.628,2.228,2.228,0,0,1,.124.688q0,.626-.75.812" transform="translate(-5.301 -6.625)" fill="#fff"/>
    <path id="Path_100" data-name="Path 100" d="M419.419,496.307l-9.44,15.006,3.627,54.4,9.441-15.007Z" transform="translate(-27.287)" fill="#fff"/>
    <path id="Path_101" data-name="Path 101" d="M522.631,637.869l9,8.44,5.251-6.5q2.628-3.253,5.253-6.628l-9-8.441q-2.625,3.315-5.283,6.565" transform="translate(-48.339 -24.001)" fill="#fff"/>
    <path id="Path_102" data-name="Path 102" d="M527.852,632.813q-2.658,3.252-5.221,6.565" transform="translate(-48.339 -25.509)" fill="#fff"/>
    <path id="Path_103" data-name="Path 103" d="M527.4,565.181l-3.062-9.441-9.817,14.506q1.312,3.877,2.688,8.442a27.367,27.367,0,0,1,1.251,6.815v.25l-8.066,3.94a83.366,83.366,0,0,1-17.194,6.128q-7,1.688-14.444,3.063a33.159,33.159,0,0,1-6.69.75,18.358,18.358,0,0,1-5.689-.813q-4.94-1.437-5.753-7.065a7.986,7.986,0,0,1-.125-1.438,22.2,22.2,0,0,1,1.221-6.473,68.3,68.3,0,0,0,17.664-4.907q13.068-5.44,20.321-15.194a71.467,71.467,0,0,0,5.941-9.629,9.027,9.027,0,0,0,1.125-4.252,9.328,9.328,0,0,0-2.313-5.877,8.2,8.2,0,0,0-6.629-3,14.759,14.759,0,0,0-2.626.25q-6,1.188-9,3.939-6.129,5.814-11.911,11.942T463.057,569.62a15.326,15.326,0,0,1-2.875.313,6.256,6.256,0,0,1-1.625-.187q-1.564-.313-1.564-3.5c0-.375.021-.77.063-1.188v-.125q0-1.25-1.751-1.25a5.545,5.545,0,0,0-.75.062,54.591,54.591,0,0,0-17.507,4.377,11.878,11.878,0,0,0-5.533,5.471q-2.156,3.973-3.72,7.347v.125a12.158,12.158,0,0,0-.9,1.223,11.5,11.5,0,0,1-1.725.59q-9.255,2.438-19.165,4.064a108.575,108.575,0,0,0-18.726,4.752q-1.751.814-.688,1.688,1.562,1.312,9.941,3.877t10.567,3a26.763,26.763,0,0,0,11.441.25q5.441-1.315,8.879-7.879,1.312-2.561,2.782-4.939a18.067,18.067,0,0,1,2.678-3.375,19.781,19.781,0,0,1,5.45-2.5,49.828,49.828,0,0,1,8.972-1.751h.126q.624,0,.625.437v.189a2.848,2.848,0,0,0-.063.562,1.364,1.364,0,0,0,.063.437,3.012,3.012,0,0,0,2.252,2.439,8.237,8.237,0,0,0,2.5.376,8.722,8.722,0,0,0,1.438-.125v-.063h.563c1.133,0,2.275-.049,3.422-.124a61.038,61.038,0,0,0-4.8,11.5,27.93,27.93,0,0,0-1.313,8.129,21.108,21.108,0,0,0,.437,4.376q1.251,5.69,9.443,6.877a41.535,41.535,0,0,0,6.127.438,57.9,57.9,0,0,0,11.192-1.187,83.809,83.809,0,0,0,18.6-5.847,78.8,78.8,0,0,0,16.35-9.723,35.049,35.049,0,0,0,10.442-12.193,33.776,33.776,0,0,0,3.751-14.506,22.015,22.015,0,0,0-1.064-6.877M475.062,561.8a34.4,34.4,0,0,1,8-5.941,6.8,6.8,0,0,1,3.376-.875,8.461,8.461,0,0,1,2.439.375,7.036,7.036,0,0,1,4.376,3,4.905,4.905,0,0,1,.626,2.063,1.333,1.333,0,0,1-.812,1.313,58.935,58.935,0,0,1-11.881,4.251q-6.377,1.565-13.13,2.876,3.5-3.563,7-7.064" transform="translate(-22.841 -8.349)" fill="#fff"/>
    <path id="Path_104" data-name="Path 104" d="M413.1,629.51c-2.681,3.082-7.348,4.862-13.144,5.013-5.285.137-14.771-2.392-25.755-5.322-11.32-3.019-24.948-6.757-37.192-8.41v0q-2.431-.343-4.638-.525c-7.447-.674-14.156-.376-19.207,1.592-5.262,1.682-7.524,3.95-7.846,4.3.1-.135.187-.274.285-.407a16.877,16.877,0,0,1,4.688-4.258,1.439,1.439,0,0,1,.285-.232c6.3-3.813,14.078-5.371,22.488-5.589,13.782-.359,29.258,2.883,42.692,5.7,10.031,2.1,18.694,3.915,24.417,3.766,7.81-.2,10.726-2.12,11.768-3.244a2.761,2.761,0,0,0,.875-1.845l0,.038a1.459,1.459,0,0,1,2.9-.328c0,.013,0,.024,0,.037l0,.018c.436,3.935-.446,7.2-2.626,9.705" transform="translate(-7.73 -22.3)" fill="#fff"/>
  </g>
</svg>
