<svg xmlns="http://www.w3.org/2000/svg" style="display: none;"><symbol id="facebook" viewBox="0 0 24 24"><title>facebook</title><path d="m15.997 3.985h2.191v-3.816c-.378-.052-1.678-.169-3.192-.169-3.159 0-5.323 1.987-5.323 5.639v3.361h-3.486v4.266h3.486v10.734h4.274v-10.733h3.345l.531-4.266h-3.877v-2.939c.001-1.233.333-2.077 2.051-2.077z"/></symbol><symbol id="whatsapp" viewBox="0 0 24 24"><title>whatsapp</title><path d="m17.507 14.307-.009.075c-2.199-1.096-2.429-1.242-2.713-.816-.197.295-.771.964-.944 1.162-.175.195-.349.21-.646.075-.3-.15-1.263-.465-2.403-1.485-.888-.795-1.484-1.77-1.66-2.07-.293-.506.32-.578.878-1.634.1-.21.049-.375-.025-.524-.075-.15-.672-1.62-.922-2.206-.24-.584-.487-.51-.672-.51-.576-.05-.997-.042-1.368.344-1.614 1.774-1.207 3.604.174 5.55 2.714 3.552 4.16 4.206 6.804 5.114.714.227 1.365.195 1.88.121.574-.091 1.767-.721 2.016-1.426.255-.705.255-1.29.18-1.425-.074-.135-.27-.21-.57-.345z"/><path d="m20.52 3.449c-7.689-7.433-20.414-2.042-20.419 8.444 0 2.096.549 4.14 1.595 5.945l-1.696 6.162 6.335-1.652c7.905 4.27 17.661-1.4 17.665-10.449 0-3.176-1.24-6.165-3.495-8.411zm1.482 8.417c-.006 7.633-8.385 12.4-15.012 8.504l-.36-.214-3.75.975 1.005-3.645-.239-.375c-4.124-6.565.614-15.145 8.426-15.145 2.654 0 5.145 1.035 7.021 2.91 1.875 1.859 2.909 4.35 2.909 6.99z"/></symbol><symbol id="instagram-sketched" viewBox="0 0 24 24"><title>instagram-sketched</title><path d="m12.004 5.838c-3.403 0-6.158 2.758-6.158 6.158 0 3.403 2.758 6.158 6.158 6.158 3.403 0 6.158-2.758 6.158-6.158 0-3.403-2.758-6.158-6.158-6.158zm0 10.155c-2.209 0-3.997-1.789-3.997-3.997s1.789-3.997 3.997-3.997 3.997 1.789 3.997 3.997c.001 2.208-1.788 3.997-3.997 3.997z"/><path d="m16.948.076c-2.208-.103-7.677-.098-9.887 0-1.942.091-3.655.56-5.036 1.941-2.308 2.308-2.013 5.418-2.013 9.979 0 4.668-.26 7.706 2.013 9.979 2.317 2.316 5.472 2.013 9.979 2.013 4.624 0 6.22.003 7.855-.63 2.223-.863 3.901-2.85 4.065-6.419.104-2.209.098-7.677 0-9.887-.198-4.213-2.459-6.768-6.976-6.976zm3.495 20.372c-1.513 1.513-3.612 1.378-8.468 1.378-5 0-7.005.074-8.468-1.393-1.685-1.677-1.38-4.37-1.38-8.453 0-5.525-.567-9.504 4.978-9.788 1.274-.045 1.649-.06 4.856-.06l.045.03c5.329 0 9.51-.558 9.761 4.986.057 1.265.07 1.645.07 4.847-.001 4.942.093 6.959-1.394 8.453z"/><circle cx="18.406" cy="5.595" r="1.439"/></symbol><symbol id="youtube" viewBox="0 0 24 24"><title>youtube</title><path d="m23.469 5.929.03.196c-.29-1.029-1.073-1.823-2.068-2.112l-.021-.005c-1.871-.508-9.4-.508-9.4-.508s-7.51-.01-9.4.508c-1.014.294-1.798 1.088-2.083 2.096l-.005.021c-.699 3.651-.704 8.038.031 11.947l-.031-.198c.29 1.029 1.073 1.823 2.068 2.112l.021.005c1.869.509 9.4.509 9.4.509s7.509 0 9.4-.509c1.015-.294 1.799-1.088 2.084-2.096l.005-.021c.318-1.698.5-3.652.5-5.648 0-.073 0-.147-.001-.221.001-.068.001-.149.001-.23 0-1.997-.182-3.951-.531-5.846zm-13.861 9.722v-7.293l6.266 3.652z"/></symbol><symbol id="twitter" viewBox="0 0 24 24"><title>twitter</title><path d="m21.534 7.113c.976-.693 1.797-1.558 2.466-2.554v-.001c-.893.391-1.843.651-2.835.777 1.02-.609 1.799-1.566 2.165-2.719-.951.567-2.001.967-3.12 1.191-.903-.962-2.19-1.557-3.594-1.557-2.724 0-4.917 2.211-4.917 4.921 0 .39.033.765.114 1.122-4.09-.2-7.71-2.16-10.142-5.147-.424.737-.674 1.58-.674 2.487 0 1.704.877 3.214 2.186 4.089-.791-.015-1.566-.245-2.223-.606v.054c0 2.391 1.705 4.377 3.942 4.835-.401.11-.837.162-1.29.162-.315 0-.633-.018-.931-.084.637 1.948 2.447 3.381 4.597 3.428-1.674 1.309-3.8 2.098-6.101 2.098-.403 0-.79-.018-1.177-.067 2.18 1.405 4.762 2.208 7.548 2.208 8.683 0 14.342-7.244 13.986-14.637z"/></symbol><symbol id="rss" viewBox="0 0 24 24"><title>rss</title><circle cx="3.429" cy="20.571" r="3.429"/><path d="m11.429 24h4.57c0-8.821-7.178-15.999-15.999-16v4.572c6.302.001 11.429 5.126 11.429 11.428z"/><path d="m24 24c0-13.234-10.766-24-24-24v4.571c10.714 0 19.43 8.714 19.43 19.429z"/></symbol><symbol id="back" viewBox="0 0 492 492"><title>back</title><path d="M198.608,246.104L382.664,62.04c5.068-5.056,7.856-11.816,7.856-19.024c0-7.212-2.788-13.968-7.856-19.032l-16.128-16.12 C361.476,2.792,354.712,0,347.504,0s-13.964,2.792-19.028,7.864L109.328,227.008c-5.084,5.08-7.868,11.868-7.848,19.084 c-0.02,7.248,2.76,14.028,7.848,19.112l218.944,218.932c5.064,5.072,11.82,7.864,19.032,7.864c7.208,0,13.964-2.792,19.032-7.864 l16.124-16.12c10.492-10.492,10.492-27.572,0-38.06L198.608,246.104z"/></symbol><symbol id="home" viewBox="0 0 460.298 460.297"><title>home</title><path d="M230.149,120.939L65.986,256.274c0,0.191-0.048,0.472-0.144,0.855c-0.094,0.38-0.144,0.656-0.144,0.852v137.041 c0,4.948,1.809,9.236,5.426,12.847c3.616,3.613,7.898,5.431,12.847,5.431h109.63V303.664h73.097v109.64h109.629 c4.948,0,9.236-1.814,12.847-5.435c3.617-3.607,5.432-7.898,5.432-12.847V257.981c0-0.76-0.104-1.334-0.288-1.707L230.149,120.939 z"/><path d="M457.122,225.438L394.6,173.476V56.989c0-2.663-0.856-4.853-2.574-6.567c-1.704-1.712-3.894-2.568-6.563-2.568h-54.816 c-2.666,0-4.855,0.856-6.57,2.568c-1.711,1.714-2.566,3.905-2.566,6.567v55.673l-69.662-58.245 c-6.084-4.949-13.318-7.423-21.694-7.423c-8.375,0-15.608,2.474-21.698,7.423L3.172,225.438c-1.903,1.52-2.946,3.566-3.14,6.136 c-0.193,2.568,0.472,4.811,1.997,6.713l17.701,21.128c1.525,1.712,3.521,2.759,5.996,3.142c2.285,0.192,4.57-0.476,6.855-1.998 L230.149,95.817l197.57,164.741c1.526,1.328,3.521,1.991,5.996,1.991h0.858c2.471-0.376,4.463-1.43,5.996-3.138l17.703-21.125 c1.522-1.906,2.189-4.145,1.991-6.716C460.068,229.007,459.021,226.961,457.122,225.438z"/></symbol><symbol id="play-button" viewBox="0 0 477.867 477.867"><title>play-button</title><path d="M238.933,0C106.974,0,0,106.974,0,238.933s106.974,238.933,238.933,238.933s238.933-106.974,238.933-238.933 C477.726,107.033,370.834,0.141,238.933,0z M339.557,246.546c-1.654,3.318-4.343,6.008-7.662,7.662v0.085L195.362,322.56 c-8.432,4.213-18.682,0.794-22.896-7.638c-1.198-2.397-1.815-5.043-1.8-7.722V170.667c-0.004-9.426,7.633-17.07,17.059-17.075 c2.651-0.001,5.266,0.615,7.637,1.8l136.533,68.267C340.331,227.863,343.762,238.11,339.557,246.546z"/></symbol><symbol id="edit" viewBox="0 0 477.873 477.873"><title>edit</title><g> <g> <path d="M392.533,238.937c-9.426,0-17.067,7.641-17.067,17.067V426.67c0,9.426-7.641,17.067-17.067,17.067H51.2 c-9.426,0-17.067-7.641-17.067-17.067V85.337c0-9.426,7.641-17.067,17.067-17.067H256c9.426,0,17.067-7.641,17.067-17.067 S265.426,34.137,256,34.137H51.2C22.923,34.137,0,57.06,0,85.337V426.67c0,28.277,22.923,51.2,51.2,51.2h307.2 c28.277,0,51.2-22.923,51.2-51.2V256.003C409.6,246.578,401.959,238.937,392.533,238.937z"/> </g> </g><g> <g> <path d="M458.742,19.142c-12.254-12.256-28.875-19.14-46.206-19.138c-17.341-0.05-33.979,6.846-46.199,19.149L141.534,243.937 c-1.865,1.879-3.272,4.163-4.113,6.673l-34.133,102.4c-2.979,8.943,1.856,18.607,10.799,21.585 c1.735,0.578,3.552,0.873,5.38,0.875c1.832-0.003,3.653-0.297,5.393-0.87l102.4-34.133c2.515-0.84,4.8-2.254,6.673-4.13 l224.802-224.802C484.25,86.023,484.253,44.657,458.742,19.142z"/> </g> </g></symbol><symbol id="list" viewBox="0 0 512 512"><title>list</title><path d="m464.883 64.267h-417.766c-25.98 0-47.117 21.136-47.117 47.149 0 25.98 21.137 47.117 47.117 47.117h417.766c25.98 0 47.117-21.137 47.117-47.117 0-26.013-21.137-47.149-47.117-47.149z"/><path d="m464.883 208.867h-417.766c-25.98 0-47.117 21.136-47.117 47.149 0 25.98 21.137 47.117 47.117 47.117h417.766c25.98 0 47.117-21.137 47.117-47.117 0-26.013-21.137-47.149-47.117-47.149z"/><path d="m464.883 353.467h-417.766c-25.98 0-47.117 21.137-47.117 47.149 0 25.98 21.137 47.117 47.117 47.117h417.766c25.98 0 47.117-21.137 47.117-47.117 0-26.012-21.137-47.149-47.117-47.149z"/></symbol><symbol id="next" viewBox="0 0 492.004 492.004"><title>next</title><path d="M382.678,226.804L163.73,7.86C158.666,2.792,151.906,0,144.698,0s-13.968,2.792-19.032,7.86l-16.124,16.12 c-10.492,10.504-10.492,27.576,0,38.064L293.398,245.9l-184.06,184.06c-5.064,5.068-7.86,11.824-7.86,19.028 c0,7.212,2.796,13.968,7.86,19.04l16.124,16.116c5.068,5.068,11.824,7.86,19.032,7.86s13.968-2.792,19.032-7.86L382.678,265 c5.076-5.084,7.864-11.872,7.848-19.088C390.542,238.668,387.754,231.884,382.678,226.804z"/></symbol><symbol id="magnifying-glass" viewBox="0 0 515.558 515.558"><title>magnifying-glass</title><path d="m378.344 332.78c25.37-34.645 40.545-77.2 40.545-123.333 0-115.484-93.961-209.445-209.445-209.445s-209.444 93.961-209.444 209.445 93.961 209.445 209.445 209.445c46.133 0 88.692-15.177 123.337-40.547l137.212 137.212 45.564-45.564c0-.001-137.214-137.213-137.214-137.213zm-168.899 21.667c-79.958 0-145-65.042-145-145s65.042-145 145-145 145 65.042 145 145-65.043 145-145 145z"/></symbol><symbol id="flag" viewBox="0 0 403.04 403.04"><title>flag</title><path d="M358.46,50.16c-2.948-1.488-6.507-1.011-8.96,1.2c-49.6,44.48-84.8,32-122.4,0C192.78,22,148.78-1.36,80.86,42.24V16.56 C80.86,7.414,73.446,0,64.3,0h-7.52c-9.146,0-16.56,7.414-16.56,16.56v369.92c0,9.146,7.414,16.56,16.56,16.56h7.52 c9.146,0,16.56-7.414,16.56-16.56V219.92c11.76-8.64,59.76-39.2,116-11.04c34.48,17.28,65.2,18.64,91.2,4.16 c62.8-34.88,74.24-150.08,74.72-154.96C363.108,54.802,361.393,51.659,358.46,50.16z M64.94,386.16c0,0.309-0.251,0.56-0.56,0.56 h-7.52c-0.309,0-0.56-0.251-0.56-0.56V16.56c0-0.309,0.251-0.56,0.56-0.56h7.52c0.309,0,0.56,0.251,0.56,0.56V386.16z M280.38,199.04c-21.12,11.76-46.8,10.48-76.32-4.48c-39.345-19.454-85.974-17.06-123.12,6.32V61.52 c60.4-42.96,98.08-30.4,136,1.92c33.04,28.32,73.6,50.96,127.28,12.88C338.14,109.76,321.58,176.24,280.38,199.04z"/></symbol><symbol id="link" viewBox="0 0 512 512"><title>link</title><path d="m162.457 434.408c-23.427 23.444-61.433 23.444-84.861 0-23.075-23.059-23.443-60.249-1.088-83.757l126.465-126.465c-39.112-10.458-82.481-.832-113.748 28.904l-56.231 56.231c-44.711 47.015-43.975 121.395 2.176 167.514 46.855 46.887 122.867 46.887 169.722 0l51.846-51.846c31.425-31.404 41.785-75.905 31.086-115.947z"/><path d="m476.835 35.17c-46.119-46.151-120.499-46.887-167.514-2.176l-56.231 56.231c-29.735 31.268-39.361 74.637-28.904 113.748l126.465-126.465c23.508-22.355 60.697-21.987 83.757 1.088 23.444 23.428 23.443 61.433 0 84.861l-125.367 125.367c40.042 10.699 84.543.34 115.947-31.086l51.846-51.846c46.888-46.855 46.888-122.867.001-169.722z"/><path d="m164.774 347.228c11.714 11.722 30.717 11.722 42.43 0l140.023-140.023c11.722-11.714 11.722-30.717 0-42.43-11.53-11.538-30.125-11.722-41.878-.544l-141.12 141.12c-11.177 11.752-10.993 30.347.545 41.877z"/></symbol><symbol id="email" viewBox="0 0 477.867 477.867"><title>email</title><g> <g> <path d="M460.8,68.267H17.067l221.867,182.75L463.309,68.779C462.488,68.539,461.649,68.368,460.8,68.267z"/> </g> </g><g> <g> <path d="M249.702,286.31c-6.288,5.149-15.335,5.149-21.623,0L0,98.406v294.127c0,9.426,7.641,17.067,17.067,17.067H460.8 c9.426,0,17.067-7.641,17.067-17.067V100.932L249.702,286.31z"/> </g> </g></symbol><symbol id="user" viewBox="0 0 512 512"><title>user</title><g> <g> <path d="M255.999,0c-74.443,0-135,60.557-135,135s60.557,135,135,135s135-60.557,135-135S330.442,0,255.999,0z"/> </g> </g><g> <g> <path d="M478.48,398.68C438.124,338.138,370.579,302,297.835,302h-83.672c-72.744,0-140.288,36.138-180.644,96.68l-2.52,3.779V512 h450h0.001V402.459L478.48,398.68z"/> </g> </g></symbol><symbol id="verified" viewBox="0 0 512 512"><title>verified</title><g> <g> <path d="M437.019,74.98C388.667,26.629,324.38,0,256,0C187.619,0,123.331,26.629,74.98,74.98C26.628,123.332,0,187.62,0,256 s26.628,132.667,74.98,181.019C123.332,485.371,187.619,512,256,512c68.38,0,132.667-26.629,181.019-74.981 C485.371,388.667,512,324.38,512,256S485.371,123.333,437.019,74.98z M256,482C131.383,482,30,380.617,30,256S131.383,30,256,30 s226,101.383,226,226S380.617,482,256,482z"/> </g> </g><g> <g> <path d="M378.305,173.859c-5.857-5.856-15.355-5.856-21.212,0.001L224.634,306.319l-69.727-69.727 c-5.857-5.857-15.355-5.857-21.213,0c-5.858,5.857-5.858,15.355,0,21.213l80.333,80.333c2.929,2.929,6.768,4.393,10.606,4.393 c3.838,0,7.678-1.465,10.606-4.393l143.066-143.066C384.163,189.215,384.163,179.717,378.305,173.859z"/> </g> </g></symbol><symbol id="info" viewBox="0 0 512 512"><title>info</title><path d="M437.02,74.98C388.667,26.629,324.38,0,256,0S123.333,26.629,74.98,74.98C26.629,123.333,0,187.62,0,256 s26.629,132.667,74.98,181.02C123.333,485.371,187.62,512,256,512s132.667-26.629,181.02-74.98 C485.371,388.667,512,324.38,512,256S485.371,123.333,437.02,74.98z M256,70c30.327,0,55,24.673,55,55c0,30.327-24.673,55-55,55 c-30.327,0-55-24.673-55-55C201,94.673,225.673,70,256,70z M326,420H186v-30h30V240h-30v-30h110v180h30V420z"/></symbol><symbol id="telegram" viewBox="0 0 24 24"><title>telegram</title><path d="m.415 11.196 5.869 2.925c.227.112.495.104.712-.023l5.224-3.037-3.162 2.802c-.161.143-.253.347-.253.562v6.825c0 .72.919 1.023 1.35.451l2.537-3.373 6.274 3.573c.44.253 1.004-.001 1.106-.504l3.913-19.5c.117-.586-.466-1.064-1.008-.846l-22.5 8.775c-.604.236-.643 1.081-.062 1.37zm21.83-8.249-3.439 17.137-5.945-3.386c-.324-.185-.741-.103-.971.201l-1.585 2.107v-4.244l8.551-7.576c.677-.599-.101-1.664-.874-1.21l-11.39 6.622-3.992-1.989z"/></symbol><symbol id="viber" viewBox="0 0 24 24"><title>viber</title><path d="m23.155 13.893c.716-6.027-.344-9.832-2.256-11.553l.001-.001c-3.086-2.939-13.508-3.374-17.2.132-1.658 1.715-2.242 4.232-2.306 7.348-.064 3.117-.14 8.956 5.301 10.54h.005l-.005 2.419s-.037.98.589 1.177c.716.232 1.04-.223 3.267-2.883 3.724.323 6.584-.417 6.909-.525.752-.252 5.007-.815 5.695-6.654zm-12.237 5.477s-2.357 2.939-3.09 3.702c-.24.248-.503.225-.499-.267 0-.323.018-4.016.018-4.016-4.613-1.322-4.341-6.294-4.291-8.895.05-2.602.526-4.733 1.93-6.168 3.239-3.037 12.376-2.358 14.704-.17 2.846 2.523 1.833 9.651 1.839 9.894-.585 4.874-4.033 5.183-4.667 5.394-.271.09-2.786.737-5.944.526z"/><path d="m12.222 4.297c-.385 0-.385.6 0 .605 2.987.023 5.447 2.105 5.474 5.924 0 .403.59.398.585-.005h-.001c-.032-4.115-2.718-6.501-6.058-6.524z"/><path d="m16.151 10.193c-.009.398.58.417.585.014.049-2.269-1.35-4.138-3.979-4.335-.385-.028-.425.577-.041.605 2.28.173 3.481 1.729 3.435 3.716z"/><path d="m15.521 12.774c-.494-.286-.997-.108-1.205.173l-.435.563c-.221.286-.634.248-.634.248-3.014-.797-3.82-3.951-3.82-3.951s-.037-.427.239-.656l.544-.45c.272-.216.444-.736.167-1.247-.74-1.337-1.237-1.798-1.49-2.152-.266-.333-.666-.408-1.082-.183h-.009c-.865.506-1.812 1.453-1.509 2.428.517 1.028 1.467 4.305 4.495 6.781 1.423 1.171 3.675 2.371 4.631 2.648l.009.014c.942.314 1.858-.67 2.347-1.561v-.007c.217-.431.145-.839-.172-1.106-.562-.548-1.41-1.153-2.076-1.542z"/><path d="m13.169 8.104c.961.056 1.427.558 1.477 1.589.018.403.603.375.585-.028-.064-1.346-.766-2.096-2.03-2.166-.385-.023-.421.582-.032.605z"/></symbol><symbol id="blogging" viewBox="0 0 512.00095 512"><title>blogging</title><path d="m255 202c11.046875 0 20 8.953125 20 20s-8.953125 20-20 20-20-8.953125-20-20 8.953125-20 20-20zm70 20c0 11.046875 8.953125 20 20 20s20-8.953125 20-20-8.953125-20-20-20-20 8.953125-20 20zm-180 0c0 11.046875 8.953125 20 20 20s20-8.953125 20-20-8.953125-20-20-20-20 8.953125-20 20zm349.414062 187.5625c23.40625 23.40625 23.40625 61.46875.011719 84.863281-11.695312 11.695313-27.0625 17.546875-42.425781 17.546875s-30.730469-5.851562-42.425781-17.546875l-109.789063-109.542969c-2.332031-2.328124-4.050781-5.191406-5.007812-8.347656l-23.914063-78.722656c-2.121093-6.980469-.273437-14.558594 4.820313-19.78125 5.09375-5.21875 12.625-7.25 19.65625-5.304688l80.722656 22.359376c3.324219.921874 6.351562 2.683593 8.792969 5.121093zm-162.824218-49.453125 74.089844 73.925781 28.289062-28.289062-73.652344-73.511719-40.609375-11.25zm134.550781 77.75-3.859375-3.855469-28.285156 28.285156 3.847656 3.835938c7.8125 7.816406 20.5 7.816406 28.296875.015625 7.800781-7.796875 7.800781-20.484375 0-28.28125zm-199.015625-23.40625c-3.695312.160156-7.4375.242187-11.125.242187-32.160156 0-63.121094-5.988281-92.019531-17.796874-4.921875-2.007813-10.445313-1.976563-15.34375.089843l-91.066407 38.441407 30.683594-72.683594c3-7.105469 1.644532-15.308594-3.488281-21.074219-29.285156-32.898437-44.765625-72.261719-44.765625-113.824219 0-103.578125 96.898438-187.847656 216-187.847656s216 84.269531 216 187.847656c0 24.5625-6.03125 49.222656-17.929688 73.289063-4.894531 9.902343-.835937 21.898437 9.066407 26.792969 9.902343 4.894531 21.898437.835937 26.792969-9.066407 14.644531-29.628906 22.070312-60.25 22.070312-91.015625 0-125.636718-114.839844-227.847656-256-227.847656-141.15625 0-256 102.210938-256 227.847656 0 47.421875 16.078125 92.332032 46.636719 130.632813l-45.0625 106.742187c-3.164063 7.496094-1.46875 16.164063 4.285156 21.917969 3.828125 3.828125 8.941406 5.859375 14.144531 5.859375 2.621094 0 5.265625-.515625 7.773438-1.574219l128.929687-54.425781c31.445313 11.746094 64.808594 17.695312 99.292969 17.695312 4.265625 0 8.597656-.097656 12.875-.28125 11.035156-.484374 19.589844-9.820312 19.105469-20.855468-.480469-11.035156-9.835938-19.617188-20.855469-19.105469zm0 0"/></symbol><symbol id="camera" viewBox="0 0 512 512"><title>camera</title><path d="m101 41h-30c-16.569 0-30 13.431-30 30h90c0-16.569-13.431-30-30-30z"/><path d="m457 101h-100.188l-9.743-29.23c-6.136-18.405-23.293-30.77-42.692-30.77h-96.754c-19.399 0-36.556 12.365-42.691 30.77l-9.744 29.23h-100.188c-30.327 0-55 24.673-55 55v260c0 30.327 24.673 55 55 55h402c30.327 0 55-24.673 55-55v-260c0-30.327-24.673-55-55-55zm-406 55c0-8.284 6.716-15 15-15h30c8.284 0 15 6.716 15 15s-6.716 15-15 15h-30c-8.284 0-15-6.716-15-15zm205 265c-79.953 0-145-65.047-145-145s65.047-145 145-145 145 65.047 145 145-65.047 145-145 145zm180-250c-8.284 0-15-6.716-15-15s6.716-15 15-15 15 6.716 15 15-6.716 15-15 15z"/><path d="m256 161c-63.411 0-115 51.589-115 115s51.589 115 115 115 115-51.589 115-115-51.589-115-115-115zm0 195c-44.112 0-80-35.888-80-80s35.888-80 80-80 80 35.888 80 80-35.888 80-80 80z"/><circle cx="256" cy="276" r="50"/></symbol><symbol id="united-states" viewBox="0 0 512 512"><title>united-states</title><path style="fill:#F5F5F5;" d="M473.655,88.276H38.345C17.167,88.276,0,105.443,0,126.621V385.38 c0,21.177,17.167,38.345,38.345,38.345h435.31c21.177,0,38.345-17.167,38.345-38.345V126.621 C512,105.443,494.833,88.276,473.655,88.276z"/><g> <path style="fill:#FF4B55;" d="M2.109,114.08H509.89c-5.196-15.017-19.452-25.804-36.235-25.804H38.345 C21.561,88.276,7.306,99.063,2.109,114.08z"/> <rect y="191.49" style="fill:#FF4B55;" width="512" height="25.803"/> <rect y="139.88" style="fill:#FF4B55;" width="512" height="25.803"/> <path style="fill:#FF4B55;" d="M0,260.074c0,4.875,3.953,8.828,8.828,8.828H512v-25.804H0V260.074z"/> <rect y="346.32" style="fill:#FF4B55;" width="512" height="25.804"/> <path style="fill:#FF4B55;" d="M509.891,397.92H2.109c5.197,15.017,19.453,25.804,36.236,25.804h435.31 C490.439,423.724,504.694,412.937,509.891,397.92z"/> <rect y="294.71" style="fill:#FF4B55;" width="512" height="25.803"/> </g><path style="fill:#41479B;" d="M8.828,268.902h220.69c4.875,0,8.828-3.953,8.828-8.828V97.103c0-4.876-3.953-8.828-8.828-8.828 H38.345C17.167,88.276,0,105.443,0,126.621v133.453C0,264.95,3.953,268.902,8.828,268.902z"/><g> <path style="fill:#F5F5F5;" d="M24.789,108.537l1.954,5.86l6.177,0.047c0.8,0.007,1.131,1.027,0.488,1.502l-4.969,3.669 l1.864,5.889c0.242,0.762-0.627,1.394-1.278,0.928L24,122.841l-5.025,3.592c-0.651,0.466-1.518-0.166-1.278-0.928l1.864-5.889 l-4.969-3.669c-0.643-0.476-0.312-1.496,0.488-1.502l6.177-0.047l1.954-5.86C23.463,107.778,24.535,107.778,24.789,108.537z"/> <path style="fill:#F5F5F5;" d="M24.789,139.191l1.954,5.86l6.177,0.047c0.8,0.007,1.131,1.026,0.488,1.502l-4.969,3.67l1.864,5.889 c0.242,0.762-0.627,1.394-1.278,0.928L24,153.496l-5.025,3.592c-0.651,0.465-1.518-0.166-1.278-0.928l1.864-5.889l-4.969-3.67 c-0.643-0.476-0.312-1.495,0.488-1.502l6.177-0.047l1.954-5.86C23.463,138.433,24.535,138.433,24.789,139.191z"/> <path style="fill:#F5F5F5;" d="M24.789,169.846l1.954,5.86l6.177,0.047c0.8,0.007,1.131,1.026,0.488,1.502l-4.969,3.67l1.864,5.889 c0.242,0.762-0.627,1.394-1.278,0.928L24,184.151l-5.025,3.592c-0.651,0.465-1.518-0.165-1.278-0.928l1.864-5.889l-4.969-3.67 c-0.643-0.476-0.312-1.495,0.488-1.502l6.177-0.047l1.954-5.86C23.463,169.087,24.535,169.087,24.789,169.846z"/> <path style="fill:#F5F5F5;" d="M24.789,200.5l1.954,5.86l6.177,0.047c0.8,0.007,1.131,1.027,0.488,1.502l-4.969,3.67l1.864,5.889 c0.242,0.762-0.627,1.394-1.278,0.928L24,214.805l-5.025,3.592c-0.651,0.465-1.518-0.166-1.278-0.928l1.864-5.889l-4.969-3.67 c-0.643-0.474-0.312-1.495,0.488-1.502l6.177-0.047l1.954-5.86C23.463,199.741,24.535,199.741,24.789,200.5z"/> <path style="fill:#F5F5F5;" d="M24.789,231.154l1.954,5.86l6.177,0.047c0.8,0.007,1.131,1.026,0.488,1.502l-4.969,3.67l1.864,5.889 c0.242,0.762-0.627,1.394-1.278,0.928L24,245.459l-5.025,3.592c-0.651,0.465-1.518-0.166-1.278-0.928l1.864-5.889l-4.969-3.67 c-0.643-0.476-0.312-1.495,0.488-1.502l6.177-0.047l1.954-5.86C23.463,230.396,24.535,230.396,24.789,231.154z"/> <path style="fill:#F5F5F5;" d="M48.582,123.566l1.954,5.86l6.177,0.047c0.8,0.007,1.131,1.027,0.488,1.502l-4.969,3.67l1.864,5.889 c0.242,0.762-0.627,1.394-1.278,0.928l-5.025-3.592l-5.025,3.592c-0.651,0.465-1.518-0.166-1.278-0.928l1.864-5.889l-4.969-3.67 c-0.643-0.476-0.312-1.495,0.488-1.502l6.177-0.047l1.954-5.86C47.256,122.808,48.329,122.808,48.582,123.566z"/> <path style="fill:#F5F5F5;" d="M48.582,154.221l1.954,5.86l6.177,0.047c0.8,0.007,1.131,1.027,0.488,1.502l-4.969,3.67l1.864,5.889 c0.242,0.762-0.627,1.394-1.278,0.928l-5.025-3.592l-5.025,3.592c-0.651,0.465-1.518-0.165-1.278-0.928l1.864-5.889l-4.969-3.67 c-0.643-0.474-0.312-1.495,0.488-1.502l6.177-0.047l1.954-5.86C47.256,153.462,48.329,153.462,48.582,154.221z"/> <path style="fill:#F5F5F5;" d="M48.582,184.875l1.954,5.86l6.177,0.047c0.8,0.007,1.131,1.026,0.488,1.502l-4.969,3.67l1.864,5.889 c0.242,0.762-0.627,1.394-1.278,0.928l-5.025-3.592l-5.025,3.592c-0.651,0.465-1.518-0.166-1.278-0.928l1.864-5.889l-4.969-3.67 c-0.643-0.476-0.312-1.495,0.488-1.502l6.177-0.047l1.954-5.86C47.256,184.116,48.329,184.116,48.582,184.875z"/> <path style="fill:#F5F5F5;" d="M48.582,215.529l1.954,5.86l6.177,0.047c0.8,0.007,1.131,1.026,0.488,1.502l-4.969,3.67l1.864,5.889 c0.242,0.762-0.627,1.394-1.278,0.928l-5.025-3.592l-5.025,3.592c-0.651,0.466-1.518-0.166-1.278-0.928l1.864-5.889l-4.969-3.67 c-0.643-0.476-0.312-1.495,0.488-1.502l6.177-0.047l1.954-5.86C47.256,214.771,48.329,214.771,48.582,215.529z"/> <path style="fill:#F5F5F5;" d="M72.375,108.537l1.954,5.86l6.177,0.047c0.8,0.007,1.131,1.027,0.488,1.502l-4.969,3.669 l1.864,5.889c0.242,0.762-0.627,1.394-1.278,0.928l-5.025-3.592l-5.025,3.592c-0.651,0.466-1.518-0.166-1.278-0.928l1.864-5.889 l-4.969-3.669c-0.643-0.476-0.312-1.496,0.488-1.502l6.177-0.047l1.954-5.86C71.049,107.778,72.122,107.778,72.375,108.537z"/> <path style="fill:#F5F5F5;" d="M72.375,139.191l1.954,5.86l6.177,0.047c0.8,0.007,1.131,1.026,0.488,1.502l-4.969,3.67l1.864,5.889 c0.242,0.762-0.627,1.394-1.278,0.928l-5.025-3.592l-5.025,3.592c-0.651,0.465-1.518-0.166-1.278-0.928l1.864-5.889l-4.969-3.67 c-0.643-0.476-0.312-1.495,0.488-1.502l6.177-0.047l1.954-5.86C71.049,138.433,72.122,138.433,72.375,139.191z"/> <path style="fill:#F5F5F5;" d="M72.375,169.846l1.954,5.86l6.177,0.047c0.8,0.007,1.131,1.026,0.488,1.502l-4.969,3.67l1.864,5.889 c0.242,0.762-0.627,1.394-1.278,0.928l-5.025-3.592l-5.025,3.592c-0.651,0.465-1.518-0.165-1.278-0.928l1.864-5.889l-4.969-3.67 c-0.643-0.476-0.312-1.495,0.488-1.502l6.177-0.047l1.954-5.86C71.049,169.087,72.122,169.087,72.375,169.846z"/> <path style="fill:#F5F5F5;" d="M72.375,200.5l1.954,5.86l6.177,0.047c0.8,0.007,1.131,1.027,0.488,1.502l-4.969,3.67l1.864,5.889 c0.242,0.762-0.627,1.394-1.278,0.928l-5.025-3.592l-5.025,3.592c-0.651,0.465-1.518-0.166-1.278-0.928l1.864-5.889l-4.969-3.67 c-0.643-0.474-0.312-1.495,0.488-1.502l6.177-0.047l1.954-5.86C71.049,199.741,72.122,199.741,72.375,200.5z"/> <path style="fill:#F5F5F5;" d="M72.375,231.154l1.954,5.86l6.177,0.047c0.8,0.007,1.131,1.026,0.488,1.502l-4.969,3.67l1.864,5.889 c0.242,0.762-0.627,1.394-1.278,0.928l-5.025-3.592l-5.025,3.592c-0.651,0.465-1.518-0.166-1.278-0.928l1.864-5.889l-4.969-3.67 c-0.643-0.476-0.312-1.495,0.488-1.502l6.177-0.047l1.954-5.86C71.049,230.396,72.122,230.396,72.375,231.154z"/> <path style="fill:#F5F5F5;" d="M96.169,123.566l1.954,5.86l6.177,0.047c0.8,0.007,1.131,1.027,0.488,1.502l-4.969,3.67l1.864,5.889 c0.242,0.762-0.627,1.394-1.278,0.928l-5.025-3.592l-5.025,3.592c-0.651,0.465-1.518-0.166-1.278-0.928l1.864-5.889l-4.969-3.67 c-0.643-0.476-0.312-1.495,0.488-1.502l6.177-0.047l1.954-5.86C94.842,122.808,95.916,122.808,96.169,123.566z"/> <path style="fill:#F5F5F5;" d="M96.169,154.221l1.954,5.86l6.177,0.047c0.8,0.007,1.131,1.027,0.488,1.502l-4.969,3.67l1.864,5.889 c0.242,0.762-0.627,1.394-1.278,0.928l-5.025-3.592l-5.025,3.592c-0.651,0.465-1.518-0.165-1.278-0.928l1.864-5.889l-4.969-3.67 c-0.643-0.474-0.312-1.495,0.488-1.502l6.177-0.047l1.954-5.86C94.842,153.462,95.916,153.462,96.169,154.221z"/> <path style="fill:#F5F5F5;" d="M96.169,184.875l1.954,5.86l6.177,0.047c0.8,0.007,1.131,1.026,0.488,1.502l-4.969,3.67l1.864,5.889 c0.242,0.762-0.627,1.394-1.278,0.928l-5.025-3.592l-5.025,3.592c-0.651,0.465-1.518-0.166-1.278-0.928l1.864-5.889l-4.969-3.67 c-0.643-0.476-0.312-1.495,0.488-1.502l6.177-0.047l1.954-5.86C94.842,184.116,95.916,184.116,96.169,184.875z"/> <path style="fill:#F5F5F5;" d="M96.169,215.529l1.954,5.86l6.177,0.047c0.8,0.007,1.131,1.026,0.488,1.502l-4.969,3.67l1.864,5.889 c0.242,0.762-0.627,1.394-1.278,0.928l-5.025-3.592l-5.025,3.592c-0.651,0.466-1.518-0.166-1.278-0.928l1.864-5.889l-4.969-3.67 c-0.643-0.476-0.312-1.495,0.488-1.502l6.177-0.047l1.954-5.86C94.842,214.771,95.916,214.771,96.169,215.529z"/> <path style="fill:#F5F5F5;" d="M119.962,108.537l1.954,5.86l6.177,0.047c0.8,0.007,1.131,1.027,0.488,1.502l-4.969,3.669 l1.864,5.889c0.242,0.762-0.627,1.394-1.278,0.928l-5.026-3.591l-5.025,3.592c-0.651,0.466-1.518-0.166-1.278-0.928l1.864-5.889 l-4.969-3.669c-0.643-0.476-0.312-1.496,0.488-1.502l6.177-0.047l1.954-5.86C118.636,107.778,119.709,107.778,119.962,108.537z"/> <path style="fill:#F5F5F5;" d="M119.962,139.191l1.954,5.86l6.177,0.047c0.8,0.007,1.131,1.026,0.488,1.502l-4.969,3.67 l1.864,5.889c0.242,0.762-0.627,1.394-1.278,0.928l-5.026-3.592l-5.025,3.592c-0.651,0.465-1.518-0.166-1.278-0.928l1.864-5.889 l-4.969-3.67c-0.643-0.476-0.312-1.495,0.488-1.502l6.177-0.047l1.954-5.86C118.636,138.433,119.709,138.433,119.962,139.191z"/> <path style="fill:#F5F5F5;" d="M119.962,169.846l1.954,5.86l6.177,0.047c0.8,0.007,1.131,1.026,0.488,1.502l-4.969,3.67 l1.864,5.889c0.242,0.762-0.627,1.394-1.278,0.928l-5.026-3.593l-5.025,3.592c-0.651,0.465-1.518-0.166-1.278-0.928l1.864-5.889 l-4.969-3.67c-0.643-0.476-0.312-1.495,0.488-1.502l6.177-0.047l1.954-5.86C118.636,169.087,119.709,169.087,119.962,169.846z"/> <path style="fill:#F5F5F5;" d="M119.962,200.5l1.954,5.86l6.177,0.047c0.8,0.007,1.131,1.027,0.488,1.502l-4.969,3.67l1.864,5.889 c0.242,0.762-0.627,1.394-1.278,0.928l-5.026-3.592l-5.025,3.592c-0.651,0.465-1.518-0.166-1.278-0.928l1.864-5.889l-4.969-3.67 c-0.643-0.474-0.312-1.495,0.488-1.502l6.177-0.047l1.954-5.86C118.636,199.741,119.709,199.741,119.962,200.5z"/> <path style="fill:#F5F5F5;" d="M119.962,231.154l1.954,5.86l6.177,0.047c0.8,0.007,1.131,1.026,0.488,1.502l-4.969,3.67 l1.864,5.889c0.242,0.762-0.627,1.394-1.278,0.928l-5.026-3.592l-5.025,3.592c-0.651,0.465-1.518-0.166-1.278-0.928l1.864-5.889 l-4.969-3.67c-0.643-0.476-0.312-1.495,0.488-1.502l6.177-0.047l1.954-5.86C118.636,230.396,119.709,230.396,119.962,231.154z"/> <path style="fill:#F5F5F5;" d="M143.755,123.566l1.954,5.86l6.177,0.047c0.8,0.007,1.131,1.027,0.488,1.502l-4.969,3.67 l1.864,5.889c0.242,0.762-0.627,1.394-1.278,0.928l-5.025-3.592l-5.025,3.592c-0.651,0.465-1.518-0.166-1.278-0.928l1.864-5.889 l-4.969-3.67c-0.643-0.476-0.312-1.495,0.488-1.502l6.177-0.047l1.954-5.86C142.43,122.808,143.502,122.808,143.755,123.566z"/> <path style="fill:#F5F5F5;" d="M143.755,154.221l1.954,5.86l6.177,0.047c0.8,0.007,1.131,1.027,0.488,1.502l-4.969,3.67 l1.864,5.889c0.242,0.762-0.627,1.394-1.278,0.928l-5.025-3.592l-5.025,3.592c-0.651,0.465-1.518-0.165-1.278-0.928l1.864-5.889 l-4.969-3.67c-0.643-0.474-0.312-1.495,0.488-1.502l6.177-0.047l1.954-5.86C142.43,153.462,143.502,153.462,143.755,154.221z"/> <path style="fill:#F5F5F5;" d="M143.755,184.875l1.954,5.86l6.177,0.047c0.8,0.007,1.131,1.026,0.488,1.502l-4.969,3.67 l1.864,5.889c0.242,0.762-0.627,1.394-1.278,0.928l-5.025-3.592l-5.025,3.592c-0.651,0.465-1.518-0.166-1.278-0.928l1.864-5.889 l-4.969-3.67c-0.643-0.476-0.312-1.495,0.488-1.502l6.177-0.047l1.954-5.86C142.43,184.116,143.502,184.116,143.755,184.875z"/> <path style="fill:#F5F5F5;" d="M143.755,215.529l1.954,5.86l6.177,0.047c0.8,0.007,1.131,1.026,0.488,1.502l-4.969,3.67 l1.864,5.889c0.242,0.762-0.627,1.394-1.278,0.928l-5.025-3.592l-5.025,3.592c-0.651,0.466-1.518-0.166-1.278-0.928l1.864-5.889 l-4.969-3.67c-0.643-0.476-0.312-1.495,0.488-1.502l6.177-0.047l1.954-5.86C142.43,214.771,143.502,214.771,143.755,215.529z"/> <path style="fill:#F5F5F5;" d="M167.549,108.537l1.954,5.86l6.177,0.047c0.8,0.007,1.131,1.027,0.488,1.502l-4.969,3.669 l1.864,5.889c0.242,0.762-0.627,1.394-1.278,0.928l-5.025-3.592l-5.025,3.592c-0.651,0.466-1.518-0.166-1.278-0.928l1.864-5.889 l-4.969-3.669c-0.643-0.476-0.312-1.496,0.488-1.502l6.177-0.047l1.954-5.86C166.222,107.778,167.296,107.778,167.549,108.537z"/> <path style="fill:#F5F5F5;" d="M167.549,139.191l1.954,5.86l6.177,0.047c0.8,0.007,1.131,1.026,0.488,1.502l-4.969,3.67 l1.864,5.889c0.242,0.762-0.627,1.394-1.278,0.928l-5.025-3.592l-5.025,3.592c-0.651,0.465-1.518-0.166-1.278-0.928l1.864-5.889 l-4.969-3.67c-0.643-0.476-0.312-1.495,0.488-1.502l6.177-0.047l1.954-5.86C166.222,138.433,167.296,138.433,167.549,139.191z"/> <path style="fill:#F5F5F5;" d="M167.549,169.846l1.954,5.86l6.177,0.047c0.8,0.007,1.131,1.026,0.488,1.502l-4.969,3.67 l1.864,5.889c0.242,0.762-0.627,1.394-1.278,0.928l-5.025-3.592l-5.025,3.592c-0.651,0.465-1.518-0.165-1.278-0.928l1.864-5.889 l-4.969-3.67c-0.643-0.476-0.312-1.495,0.488-1.502l6.177-0.047l1.954-5.86C166.222,169.087,167.296,169.087,167.549,169.846z"/> <path style="fill:#F5F5F5;" d="M167.549,200.5l1.954,5.86l6.177,0.047c0.8,0.007,1.131,1.027,0.488,1.502l-4.969,3.67l1.864,5.889 c0.242,0.762-0.627,1.394-1.278,0.928l-5.025-3.592l-5.025,3.592c-0.651,0.465-1.518-0.166-1.278-0.928l1.864-5.889l-4.969-3.67 c-0.643-0.474-0.312-1.495,0.488-1.502l6.177-0.047l1.954-5.86C166.222,199.741,167.296,199.741,167.549,200.5z"/> <path style="fill:#F5F5F5;" d="M167.549,231.154l1.954,5.86l6.177,0.047c0.8,0.007,1.131,1.026,0.488,1.502l-4.969,3.67 l1.864,5.889c0.242,0.762-0.627,1.394-1.278,0.928l-5.025-3.592l-5.025,3.592c-0.651,0.465-1.518-0.166-1.278-0.928l1.864-5.889 l-4.969-3.67c-0.643-0.476-0.312-1.495,0.488-1.502l6.177-0.047l1.954-5.86C166.222,230.396,167.296,230.396,167.549,231.154z"/> <path style="fill:#F5F5F5;" d="M191.342,123.566l1.954,5.86l6.177,0.047c0.8,0.007,1.131,1.027,0.488,1.502l-4.969,3.67 l1.864,5.889c0.242,0.762-0.627,1.394-1.278,0.928l-5.025-3.592l-5.025,3.592c-0.651,0.465-1.518-0.166-1.278-0.928l1.864-5.889 l-4.969-3.67c-0.643-0.476-0.312-1.495,0.488-1.502l6.177-0.047l1.954-5.86C190.016,122.808,191.089,122.808,191.342,123.566z"/> <path style="fill:#F5F5F5;" d="M191.342,154.221l1.954,5.86l6.177,0.047c0.8,0.007,1.131,1.027,0.488,1.502l-4.969,3.67 l1.864,5.889c0.242,0.762-0.627,1.394-1.278,0.928l-5.025-3.592l-5.025,3.592c-0.651,0.465-1.518-0.165-1.278-0.928l1.864-5.889 l-4.969-3.67c-0.643-0.474-0.312-1.495,0.488-1.502l6.177-0.047l1.954-5.86C190.016,153.462,191.089,153.462,191.342,154.221z"/> <path style="fill:#F5F5F5;" d="M191.342,184.875l1.954,5.86l6.177,0.047c0.8,0.007,1.131,1.026,0.488,1.502l-4.969,3.67 l1.864,5.889c0.242,0.762-0.627,1.394-1.278,0.928l-5.025-3.592l-5.025,3.592c-0.651,0.465-1.518-0.166-1.278-0.928l1.864-5.889 l-4.969-3.67c-0.643-0.476-0.312-1.495,0.488-1.502l6.177-0.047l1.954-5.86C190.016,184.116,191.089,184.116,191.342,184.875z"/> <path style="fill:#F5F5F5;" d="M191.342,215.529l1.954,5.86l6.177,0.047c0.8,0.007,1.131,1.026,0.488,1.502l-4.969,3.67 l1.864,5.889c0.242,0.762-0.627,1.394-1.278,0.928l-5.025-3.592l-5.025,3.592c-0.651,0.466-1.518-0.166-1.278-0.928l1.864-5.889 l-4.969-3.67c-0.643-0.476-0.312-1.495,0.488-1.502l6.177-0.047l1.954-5.86C190.016,214.771,191.089,214.771,191.342,215.529z"/> <path style="fill:#F5F5F5;" d="M215.136,108.537l1.954,5.86l6.177,0.047c0.8,0.007,1.131,1.027,0.488,1.502l-4.969,3.669 l1.864,5.889c0.242,0.762-0.627,1.394-1.278,0.928l-5.025-3.592l-5.025,3.592c-0.651,0.466-1.518-0.166-1.278-0.928l1.864-5.889 l-4.969-3.669c-0.643-0.476-0.312-1.496,0.488-1.502l6.177-0.047l1.954-5.86C213.81,107.778,214.882,107.778,215.136,108.537z"/> <path style="fill:#F5F5F5;" d="M215.136,139.191l1.954,5.86l6.177,0.047c0.8,0.007,1.131,1.026,0.488,1.502l-4.969,3.67 l1.864,5.889c0.242,0.762-0.627,1.394-1.278,0.928l-5.025-3.592l-5.025,3.592c-0.651,0.465-1.518-0.166-1.278-0.928l1.864-5.889 l-4.969-3.67c-0.643-0.476-0.312-1.495,0.488-1.502l6.177-0.047l1.954-5.86C213.81,138.433,214.882,138.433,215.136,139.191z"/> <path style="fill:#F5F5F5;" d="M215.136,169.846l1.954,5.86l6.177,0.047c0.8,0.007,1.131,1.026,0.488,1.502l-4.969,3.67 l1.864,5.889c0.242,0.762-0.627,1.394-1.278,0.928l-5.025-3.592l-5.025,3.592c-0.651,0.465-1.518-0.165-1.278-0.928l1.864-5.889 l-4.969-3.67c-0.643-0.476-0.312-1.495,0.488-1.502l6.177-0.047l1.954-5.86C213.81,169.087,214.882,169.087,215.136,169.846z"/> <path style="fill:#F5F5F5;" d="M215.136,200.5l1.954,5.86l6.177,0.047c0.8,0.007,1.131,1.027,0.488,1.502l-4.969,3.67l1.864,5.889 c0.242,0.762-0.627,1.394-1.278,0.928l-5.025-3.592l-5.025,3.592c-0.651,0.465-1.518-0.166-1.278-0.928l1.864-5.889l-4.969-3.67 c-0.643-0.474-0.312-1.495,0.488-1.502l6.177-0.047l1.954-5.86C213.81,199.741,214.882,199.741,215.136,200.5z"/> <path style="fill:#F5F5F5;" d="M215.136,231.154l1.954,5.86l6.177,0.047c0.8,0.007,1.131,1.026,0.488,1.502l-4.969,3.67 l1.864,5.889c0.242,0.762-0.627,1.394-1.278,0.928l-5.025-3.592l-5.025,3.592c-0.651,0.465-1.518-0.166-1.278-0.928l1.864-5.889 l-4.969-3.67c-0.643-0.476-0.312-1.495,0.488-1.502l6.177-0.047l1.954-5.86C213.81,230.396,214.882,230.396,215.136,231.154z"/> </g></symbol><symbol id="long-left-arrow" viewBox="0 0 16 16"><title>long-left-arrow</title><path fill="#444444" d="M15 7v2h-11v2l-3-3 3-3v2z"/></symbol><symbol id="long-right-arrow" viewBox="0 0 16 16"><title>long-right-arrow</title><path fill="#444444" d="M1 9v-2h11v-2l3 3-3 3v-2z"/></symbol><symbol id="add" viewBox="0 0 512 512"><title>add</title><g> <g> <path d="M256,0C114.833,0,0,114.833,0,256s114.833,256,256,256s256-114.853,256-256S397.167,0,256,0z M256,472.341 c-119.275,0-216.341-97.046-216.341-216.341S136.725,39.659,256,39.659S472.341,136.705,472.341,256S375.295,472.341,256,472.341z "/> </g> </g><g> <g> <path d="M355.148,234.386H275.83v-79.318c0-10.946-8.864-19.83-19.83-19.83s-19.83,8.884-19.83,19.83v79.318h-79.318 c-10.966,0-19.83,8.884-19.83,19.83s8.864,19.83,19.83,19.83h79.318v79.318c0,10.946,8.864,19.83,19.83,19.83 s19.83-8.884,19.83-19.83v-79.318h79.318c10.966,0,19.83-8.884,19.83-19.83S366.114,234.386,355.148,234.386z"/> </g> </g></symbol><symbol id="share" viewBox="0 0 512 512.00578"><title>share</title><path d="m507.523438 148.890625-138.667969-144c-4.523438-4.691406-11.457031-6.164063-17.492188-3.734375-6.058593 2.453125-10.027343 8.320312-10.027343 14.847656v69.335938h-5.332032c-114.6875 0-208 93.3125-208 208v32c0 7.421875 5.226563 13.609375 12.457032 15.296875 1.175781.296875 2.347656.425781 3.519531.425781 6.039062 0 11.820312-3.542969 14.613281-9.109375 29.996094-60.011719 90.304688-97.28125 157.398438-97.28125h25.34375v69.332031c0 6.53125 3.96875 12.398438 10.027343 14.828125 5.996094 2.453125 12.96875.960938 17.492188-3.734375l138.667969-144c5.972656-6.207031 5.972656-15.976562 0-22.207031zm0 0"/><path d="m448.003906 512.003906h-384c-35.285156 0-63.99999975-28.710937-63.99999975-64v-298.664062c0-35.285156 28.71484375-64 63.99999975-64h64c11.796875 0 21.332032 9.535156 21.332032 21.332031s-9.535157 21.332031-21.332032 21.332031h-64c-11.777344 0-21.335937 9.558594-21.335937 21.335938v298.664062c0 11.777344 9.558593 21.335938 21.335937 21.335938h384c11.773438 0 21.332032-9.558594 21.332032-21.335938v-170.664062c0-11.796875 9.535156-21.335938 21.332031-21.335938 11.800781 0 21.335937 9.539063 21.335937 21.335938v170.664062c0 35.289063-28.714844 64-64 64zm0 0"/></symbol><symbol id="trending" viewBox="-80 0 511 511.99927"><title>trending</title><path d="m285.402344 132.957031c-3.480469-5.761719-10.378906-8.5-16.863282-6.691406-6.488281 1.808594-10.972656 7.714844-10.972656 14.449219 0 18.308594-14.894531 33.199218-33.199218 33.199218-18.308594 0-33.199219-14.890624-33.199219-33.199218v-125.714844c0-6.066406-3.65625-11.535156-9.261719-13.859375-5.605469-2.320313-12.058594-1.035156-16.347656 3.253906-1.679688 1.683594-41.683594 41.914063-82.207032 102.703125-23.894531 35.84375-42.964843 71.398438-56.675781 105.675782-17.367187 43.421874-26.175781 84.996093-26.175781 123.558593 0 96.863281 78.804688 175.667969 175.664062 175.667969 96.863282 0 175.667969-78.804688 175.667969-175.667969 0-62-22.351562-130.425781-66.429687-203.375zm-109.238282 349.042969c-80.316406 0-145.664062-65.347656-145.664062-145.667969 0-79.0625 42.136719-158.980469 77.488281-212.105469 19.160157-28.792968 38.46875-53.058593 53.175781-70.316406v86.804688c0 34.847656 28.351563 63.199218 63.199219 63.199218 21.304688 0 40.183594-10.59375 51.636719-26.792968 30.429688 57.300781 45.832031 110.746094 45.832031 159.210937 0 80.320313-65.34375 145.667969-145.667969 145.667969zm0 0"/><path d="m261.257812 253.167969h-64.265624c-8.285157 0-15 6.714843-15 14.996093-.003907 8.285157 6.714843 15.003907 14.996093 15.003907h28.058594l-64.085937 64.082031-34.835938-34.835938c-5.855469-5.855468-15.355469-5.855468-21.210938 0l-34.085937 34.082032c-5.859375 5.859375-5.859375 15.355468-.003906 21.214844 5.859375 5.859374 15.355469 5.855468 21.214843 0l23.480469-23.476563 34.832031 34.835937c2.8125 2.8125 6.628907 4.394532 10.609376 4.394532 3.976562 0 7.792968-1.582032 10.605468-4.394532l74.691406-74.6875v28.050782c0 8.28125 6.714844 15 15 15 8.285157 0 15-6.71875 15-15v-64.265625c0-8.285157-6.714843-15-15-15zm0 0"/></symbol></svg>