<svg xmlns="http://www.w3.org/2000/svg" viewBox="0 0 233.08 70.63"><title>Vector Smart Object</title><path d="M115.09,32.65q-1.94-1.54-9.65-4.06l-.41-.14L103,27.79q-7.47-2.41-7.47-5.12A3.07,3.07,0,0,1,97.06,20a7.22,7.22,0,0,1,4.08-1A7.47,7.47,0,0,1,106,20.34a6.09,6.09,0,0,1,2,4.21h9.79a12.15,12.15,0,0,0-4.3-9.79q-4.31-3.63-11.64-3.63T90,14.58a11.2,11.2,0,0,0-4.37,9.28,10.47,10.47,0,0,0,2.27,6.68,15.66,15.66,0,0,0,6.66,4.6c2,.82,4.51,1.65,7.45,2.52a37.79,37.79,0,0,1,5.54,1.91,2.74,2.74,0,0,1,1.16,1.15,3.62,3.62,0,0,1,.41,1.73,3.29,3.29,0,0,1-1.74,3,9.49,9.49,0,0,1-4.9,1.05,8.15,8.15,0,0,1-5.66-1.76,7.11,7.11,0,0,1-2-5.24h-10q.46,7.38,4.61,11t12,3.64c5.58,0,9.93-1.13,13-3.39a11,11,0,0,0,4.65-9.47,11.24,11.24,0,0,0-1-4.83A10.71,10.71,0,0,0,115.09,32.65Zm24.73-4-7.47-16.43H120.69l14,25.39V53h10.12V37.63L159,12.24H147.27Zm47.79-6c0,2,0,4.41.11,7.11s.18,5.58.33,8.66c-1-2.09-2.05-4.2-3.17-6.34s-2.31-4.3-3.56-6.47l-7.67-13.39H162.4V53h10.07V40.7c0-1.77-.05-3.79-.14-6.08s-.24-4.76-.44-7.42q1.85,3.53,3.5,6.55t3.06,5.46l8,13.78h11.22V12.24h-10Zm41.81,21a8.6,8.6,0,0,1-5.61,1.72,7.85,7.85,0,0,1-6.76-3.31c-1.6-2.2-2.4-5.3-2.4-9.28s.85-7.16,2.54-9.46a8.09,8.09,0,0,1,6.89-3.46,8.7,8.7,0,0,1,5.26,1.48,7.49,7.49,0,0,1,2.71,4.41h9.76a15.19,15.19,0,0,0-5.33-10.65q-4.68-3.9-12.07-3.9-9.32,0-14.87,5.9T204,32.93q0,9.52,5.46,15.35t14.37,5.84q7.44,0,12.14-4t5.75-11.37h-9.65A7.72,7.72,0,0,1,229.42,43.69Z" transform="translate(-8.81 -6.86)" style="fill:#fff;fill-rule:evenodd"/><path d="M95.17,67.53a6,6,0,0,0-1-.45c-.39-.13-1-.31-2-.55l-.91-.21c-1.45-.34-2.17-.84-2.17-1.52a1.33,1.33,0,0,1,.56-1.14,2.66,2.66,0,0,1,1.58-.4,3,3,0,0,1,1.82.48,1.82,1.82,0,0,1,.71,1.41h2.52a3.86,3.86,0,0,0-1.33-3,5.28,5.28,0,0,0-3.48-1,5.88,5.88,0,0,0-3.65,1A3.41,3.41,0,0,0,86.57,65a4,4,0,0,0,.35,1.72,2.76,2.76,0,0,0,1,1.16,8.15,8.15,0,0,0,2.54.88l.27.06h.08c2.21.51,3.32,1.15,3.32,1.92a1.36,1.36,0,0,1-.58,1.2,3,3,0,0,1-1.72.41,3.45,3.45,0,0,1-2-.51A2.17,2.17,0,0,1,89,70.26H86.38a4.15,4.15,0,0,0,1.47,3.17,7,7,0,0,0,7.54,0,3.73,3.73,0,0,0,1.34-3.07,3.49,3.49,0,0,0-.39-1.71A2.8,2.8,0,0,0,95.17,67.53Zm16-6.39A5.9,5.9,0,0,0,106.61,63a6.92,6.92,0,0,0-1.68,4.89,6.92,6.92,0,0,0,1.68,4.89,6.56,6.56,0,0,0,9.07,0,6.88,6.88,0,0,0,1.69-4.89A6.87,6.87,0,0,0,115.68,63,5.91,5.91,0,0,0,111.14,61.14Zm2.64,10a3.2,3.2,0,0,1-2.64,1.17,3.16,3.16,0,0,1-2.61-1.17,6.18,6.18,0,0,1,0-6.52,3.18,3.18,0,0,1,2.61-1.16,3.22,3.22,0,0,1,2.64,1.16,6.12,6.12,0,0,1,0,6.52Zm15-9.63h-2.62V74.19H135V71.84h-6.21Zm21.55,8a3.26,3.26,0,0,1-.59,2.16,2.44,2.44,0,0,1-1.89.67,2.38,2.38,0,0,1-1.87-.68,3.25,3.25,0,0,1-.58-2.15v-8h-2.65V69.7a4.71,4.71,0,0,0,1.32,3.6,5.32,5.32,0,0,0,3.8,1.25,5.24,5.24,0,0,0,3.77-1.26,4.73,4.73,0,0,0,1.3-3.59V61.44h-2.61Zm10.76-5.68h3.77V74.19h2.62V63.74h3.75V61.47H161.09Zm18.46,10.45h2.62V61.47h-2.62Zm17.72-13A5.9,5.9,0,0,0,192.74,63a6.92,6.92,0,0,0-1.68,4.89,6.92,6.92,0,0,0,1.68,4.89,6.56,6.56,0,0,0,9.07,0,6.88,6.88,0,0,0,1.69-4.89A6.87,6.87,0,0,0,201.81,63,5.91,5.91,0,0,0,197.27,61.14Zm2.64,10a3.2,3.2,0,0,1-2.64,1.17,3.16,3.16,0,0,1-2.61-1.17,6.18,6.18,0,0,1,0-6.52,3.18,3.18,0,0,1,2.61-1.16,3.22,3.22,0,0,1,2.64,1.16,6.12,6.12,0,0,1,0,6.52Zm20.28-.89L215,61.47h-2.74V74.19h2.58V65.45l5.2,8.74h2.71V61.47h-2.59Zm21.3-1.54a2.77,2.77,0,0,0-1.16-1.14,6.1,6.1,0,0,0-1-.45c-.39-.13-1-.31-2-.55l-.92-.21c-1.44-.34-2.16-.84-2.16-1.52a1.33,1.33,0,0,1,.55-1.14,2.67,2.67,0,0,1,1.59-.4,3,3,0,0,1,1.82.48,1.85,1.85,0,0,1,.71,1.41h2.51a3.88,3.88,0,0,0-1.32-3,5.29,5.29,0,0,0-3.49-1,5.85,5.85,0,0,0-3.64,1A3.41,3.41,0,0,0,231.73,65a3.83,3.83,0,0,0,.35,1.72,2.76,2.76,0,0,0,1,1.16,8.05,8.05,0,0,0,2.54.88l.26.06H236q3.33.76,3.33,1.92a1.38,1.38,0,0,1-.58,1.2,3,3,0,0,1-1.72.41,3.49,3.49,0,0,1-2.05-.51,2.16,2.16,0,0,1-.85-1.55h-2.58A4.11,4.11,0,0,0,233,73.43a7,7,0,0,0,7.54,0,3.71,3.71,0,0,0,1.34-3.07A3.49,3.49,0,0,0,241.49,68.67Z" transform="translate(-8.81 -6.86)" style="fill:#00aeef;fill-rule:evenodd"/><circle cx="34.91" cy="35.29" r="23.41" style="fill:none;stroke:#00aeef;stroke-miterlimit:10;stroke-width:2.99602982051972px"/><path d="M16.67,41.31l22.63,13A6.72,6.72,0,1,0,43,47.79l-25-14.29a27.26,27.26,0,0,1,52,1.09l9.1,5.22A35.36,35.36,0,0,0,8.94,37l7.72,4.43A.38.38,0,0,0,16.67,41.31Zm31.47-9.89a6.72,6.72,0,1,0-3.73,6.49L69.27,52.15a26.58,26.58,0,0,1-1.72,3.57,27.27,27.27,0,0,1-49.13-3.9L8.81,46.31a35.35,35.35,0,0,0,69.81,2.58l-.35-.2Z" transform="translate(-8.81 -6.86)" style="fill:#fff;fill-rule:evenodd"/></svg>