<svg xmlns="http://www.w3.org/2000/svg" width="46.224" height="46.108" viewBox="0 0 46.224 46.108">
  <path id="Icon_material-slow-motion-video" data-name="Icon material-slow-motion-video" d="M27.879,20.325l-7.067-5.306V35.872l7.067-5.306,6.835-5.121Zm0,0-7.067-5.306V35.872l7.067-5.306,6.835-5.121Zm0,0-7.067-5.306V35.872l7.067-5.306,6.835-5.121ZM23.129,7.072V2.392A23.051,23.051,0,0,0,10.8,7.512l3.29,3.313a18.4,18.4,0,0,1,9.036-3.754Zm-12.3,7.021L7.512,10.8A23.051,23.051,0,0,0,2.392,23.129h4.68a18.4,18.4,0,0,1,3.754-9.036ZM7.072,27.763H2.392A23.051,23.051,0,0,0,7.512,40.089l3.313-3.313a18.23,18.23,0,0,1-3.754-9.013ZM10.8,43.379A23.127,23.127,0,0,0,23.129,48.5V43.82a18.4,18.4,0,0,1-9.036-3.754L10.8,43.379ZM48.616,25.446A23.2,23.2,0,0,1,27.879,48.5V43.82a18.534,18.534,0,0,0,0-36.748V2.392A23.2,23.2,0,0,1,48.616,25.446Z" transform="translate(-2.392 -2.392)" fill="#fff"/>
</svg>
